<svg id="Layer_1" data-name="Layer 1" xmlns="http://www.w3.org/2000/svg" viewBox="0 0 868.37 843.31"><defs><style>.cls-1{fill:none;stroke:#4be1c3;stroke-width:2px;}</style></defs><polygon class="cls-1" points="727.81 432.14 750.85 438.06 727.81 432.14 727.81 432.14"/><path class="cls-1" d="M649.64,629.56l.11.09.81-1-1,.76Z"/><polygon class="cls-1" points="398.37 809.99 398.37 809.99 398.68 811.2 398.37 809.99"/><path class="cls-1" d="M151.13,464.64a1.12,1.12,0,0,0,.05-.13l-10.42-17.83h0"/><path class="cls-1" d="M750.77,438.08l.08,0c.06,0,0,0-.08,0l.08,0c3.86-.78,6.95-3.36,9.42-7.18a46.16,46.16,0,0,0,5.56-14.27,116.59,116.59,0,0,0,2.7-23.31l0,0-.1-.13a2,2,0,0,1-.2-.38c-.05-.11-.09-.22-.13-.33a12.05,12.05,0,0,1-.36-1.6c-.1-.6-.19-1.26-.23-1.88,0-.31,0-.62,0-.9a5.47,5.47,0,0,1,0-.82,3.28,3.28,0,0,1,.08-.41,1.53,1.53,0,0,1,.07-.24,1.21,1.21,0,0,1,0-.14c-3.51-6.92-6.61-11.89-9.61-16.7l-.69-1.1a147.56,147.56,0,0,1-10.47-19.23,79.66,79.66,0,0,1-12.62-16.93l-.12-.22,0-.25a8.58,8.58,0,0,1,.4-3.32,25.84,25.84,0,0,1,1.43-3.55c.67-1.38,1.49-2.9,2.32-4.43.6-1.11,1.2-2.22,1.75-3.29a28.88,28.88,0,0,0,2.9-7.5c.41-2.27.12-4.12-1.13-5.58h0c-10.22-12-11.8-24.1-13.26-35.26-.23-1.72-.45-3.41-.7-5.08-.94-6.29-2.27-12.21-5.52-17.79s-8.44-10.88-17.29-15.82h0c-5.66-3.17-8.55-6.52-9.27-10.2s.79-7.19,2.89-10.54c1.06-1.69,2.31-3.39,3.58-5.08l.94-1.23c1-1.29,2-2.57,2.89-3.87,2.46-3.46,4.46-6.86,5.07-10.32,3.13-17.58-.38-34.5-6-51.56-.91-2.76-3.36-5.23-6.76-7.59a102.37,102.37,0,0,0-10.54-6l-1-.53a62.67,62.67,0,0,1-10.72-6.53c-2.78-2.33-4.76-5.16-4.08-8.66,2-10.23-4.69-18.76-11.64-23.11-3.5-2.19-6.78-3.15-8.79-2.9a2,2,0,0,0-1.68.91,4,4,0,0,0,0,3l1.39,4.67-3.49-3.42c-1.9-1.85-4.42-4.69-7.28-7.91l-1.11-1.25c-3.34-3.75-7.08-7.92-10.89-11.72a70,70,0,0,0-11.09-9.37l-7.24-8.92a3.17,3.17,0,0,0-.77-.9,3.58,3.58,0,0,0-2.29-.63c-2.15,0-5.31,1.18-9.6,3.72l-.64.38-.65-.38c-6.27-3.66-10.9-4.24-14.21-2.53s-5.93,6.12-7.34,13.8l-.05.27-.16.23c-3,4.34-7.89,7.6-13.34,10.31-4.74,2.35-10.07,4.35-15.22,6.28l-2.31.87C537.73,81.84,532.21,84,528,86.7a26.45,26.45,0,0,0-2.63,1.86l1,.71a139.72,139.72,0,0,0-10.07,22l-.39,1.07-1.11-.27-3.46-.84c-4.56-1.1-12.53-3-20.23-5-5.25-1.32-10.4-2.65-14.29-3.72-1.94-.54-3.57-1-4.76-1.41-.59-.19-1.09-.37-1.47-.53h0l-.3-.09a1.73,1.73,0,0,1-.88-.79l2.22-1.22a.73.73,0,0,0-.4-.33.84.84,0,0,0-.55,0h0a1.83,1.83,0,0,0,.35-.32,20.46,20.46,0,0,0,2.27-3.26c1.85-3.1,4.15-7.67,6.44-12.62s4.53-10.21,6.27-14.67a88.29,88.29,0,0,0,2.91-8.42c-6-.71-19.18-.89-31.45-.22a144.09,144.09,0,0,0-17.59,1.87,29.19,29.19,0,0,0-5.58,1.52,5.88,5.88,0,0,0-1.43.8c-.3.24-.35.39-.35.41L430,62.74a32.07,32.07,0,0,0,.79-6.43,7,7,0,0,0-.64-3.29c-.62-1.14-1.81-1.56-4.08-1.5-1.07,0-2.24.16-3.56.31l-.2,0c-1.38.15-2.87.31-4.41.35A16.31,16.31,0,0,1,408.39,50l-3.19-2,3.77-.29c4.83-.37,8.14-1.37,10.29-2.73a7.08,7.08,0,0,0,3.48-5A13.34,13.34,0,0,0,421.67,33a38.85,38.85,0,0,0-4.56-8.13A87.94,87.94,0,0,0,403.7,10.2,48.48,48.48,0,0,0,398.19,6a8.3,8.3,0,0,0-1.55-.82c-11.79,5-21,4.7-30.66,2.74-3.17-.64-6.35-1.44-9.68-2.28a166.26,166.26,0,0,0-22.89-4.5c-2,6.81,1.11,12.57,6,18.17,1.9,2.2,4,4.3,6.12,6.4l2.1,2.11a48.92,48.92,0,0,1,7.12,8.52A16,16,0,0,1,357.34,44a9.64,9.64,0,0,1-1.95,6.08c-2.47,3.33-6.92,5.55-11.21,7.33-1.28.54-2.61,1-3.88,1.55l-2.51,1a37,37,0,0,0-5.15,2.43,5.84,5.84,0,0,0-2.49,2.36,2.41,2.41,0,0,0,.19,2.1,8.47,8.47,0,0,1,1.16.71c1,.69,2.45,1.83,4.15,3.26a108.15,108.15,0,0,1,11.46,11.07,43.89,43.89,0,0,1,4.6,6.16,12,12,0,0,1,2,5.73,4.7,4.7,0,0,1-.72,2.64,5.17,5.17,0,0,1-2.23,1.87,14.11,14.11,0,0,1-6.14.93c3.46,7.08,7.92,13.3,11.64,18.49.15.2.29.41.43.61l1.16,1.61-2,.36c-6.23,1.13-11.32-1.24-15.46-3.17-.85-.4-1.66-.78-2.43-1.1-2.35-1-4.29-1.5-6.13-1.1s-3.81,1.7-6.1,5.06c-3,4.36-4.13,9.83-4,15.44a42.45,42.45,0,0,0,3.61,16l1.24,2.78-2.86-1.09c-7.52-2.89-11.62-4.26-13.8-4.6a4.76,4.76,0,0,0-1.09-.07l-.11,0a2.28,2.28,0,0,0,0,.44,13.83,13.83,0,0,0,.24,1.44c.06.3.12.63.19,1a16.39,16.39,0,0,1,.31,3.59,11.77,11.77,0,0,1-4.31,8.66l-.12.11-.15.08c-3.71,1.89-7.11,2.28-9.82.44s-4.12-5.3-4.88-10.08l-.25-1.55,1.58.09a6.89,6.89,0,0,0,3.7-.53,1.88,1.88,0,0,0,1-1.5,6.18,6.18,0,0,0-.46-2.95,20.39,20.39,0,0,0-2-3.92,38.53,38.53,0,0,0-6.64-7.67,21.1,21.1,0,0,0-3.38-2.49,5.14,5.14,0,0,0-2.3-.84h0c-4.23,0-9.87,1-16,2.72s-12.7,3.89-18.75,6.12-11.6,4.46-15.68,6.12l-1.45.59-3.48,1.41-1.25.48c-.05,1.42-.1,2.72-.15,3.92-.11,2.61-.2,4.71-.17,6.47,0,2.72.36,4.27,1.08,5.34s2,1.86,4.44,2.71c2.18.74,5.12,1.45,9.13,2.42l1.71.42,4.21,1-4.1,1.39c-1.85.64-3.46,2.19-4.85,4.66a37.91,37.91,0,0,0-3.41,9.54c-1.56,6.54-2.52,14.47-3.47,22.43-.17,1.36-.33,2.71-.49,4.06-1.14,9.2-2.42,18.18-4.87,24.4-1.22,3.11-2.81,5.7-5,7.26a8.61,8.61,0,0,1-8.08,1h0a15.21,15.21,0,0,0-7.41-.92,5.3,5.3,0,0,0-3.61,2.28c-1.55,2.34-1.54,6.27-.18,10.28s3.87,7.52,6.64,9.06a5.5,5.5,0,0,0,4.08.67,8.32,8.32,0,0,0,4.45-3.32l.85-1.11,1,1c4.83,4.53,6.72,9.21,6.45,13.89s-2.61,9-5.75,13.08a97.16,97.16,0,0,1-11.11,11.51c-.76.69-1.51,1.38-2.25,2-2.53,2.3-4.89,4.44-6.82,6.43a15.84,15.84,0,0,1,5,3.35,4.56,4.56,0,0,1,1.21,2.35,3.61,3.61,0,0,1-.47,2.4,10,10,0,0,1-4.05,3.42,48.16,48.16,0,0,1-6.29,2.73c-2,.74-4.1,1.45-6.16,2.15l-1,.34c-2.38.8-4.64,1.58-6.54,2.35a18.08,18.08,0,0,0-4.23,2.2,2,2,0,0,0-.63.71c0,.06,0,.08,0,.18l-2,1.5c-4.95-4.9-9.38-7-13-7.41a9.32,9.32,0,0,0-8.45,3.44c-4.13,5-4.8,14.75,1,23.87h0c2.29,3.62,3.16,8.71,3.36,14.08a125,125,0,0,1-.78,16.65c-.13,1.35-.27,2.67-.4,3.94-.39,3.77-.73,7.08-.79,9.59a11.6,11.6,0,0,0,.27,3.47,1.14,1.14,0,0,0,.13.28.07.07,0,0,0,0,0,.21.21,0,0,0-.11,0l1.27,2.07a16.25,16.25,0,0,1-2,1.48c-.84.56-1.9,1.24-3.07,2l-.17.11c-2.5,1.62-5.53,3.59-8.34,5.62a40.85,40.85,0,0,0-6.82,5.86,5.82,5.82,0,0,0-1.27,2.12.74.74,0,0,0,.2.84h0c5.69,5.29,7.19,8.29,7.3,11.64a18.09,18.09,0,0,1-.09,2.33c0,.18,0,.35,0,.53,0,.61-.1,1.24-.13,1.92a24.72,24.72,0,0,0,.57,6.56,5.39,5.39,0,0,0,.61,1.26c.37.63.88,1.38,1.48,2.22.72,1,1.54,2.12,2.39,3.26.57.76,1.15,1.54,1.72,2.33a45.35,45.35,0,0,1,3.54,5.37,6.83,6.83,0,0,1,.8,2.26,2.4,2.4,0,0,1-.12,1.13,33.18,33.18,0,0,1,3.2,6.28c.87,2.16,1.71,4.57,2.59,7.09l.69,2c2.3,6.52,5,13.67,9.5,20.09l1.56,2.23L166,502c-8-.75-13.08,1.57-16,5.37s-4.07,9.55-3.54,15.88a51.47,51.47,0,0,0,5.69,18.94c3.08,5.89,7.07,10.75,11.3,13.35l.44.28.12.5a18.66,18.66,0,0,0,2.09,5.31l.52.85,0,.06c.15.25.31.49.45.73a7.69,7.69,0,0,1,.79,1.74,7.54,7.54,0,0,1-.58,4.86,70.11,70.11,0,0,1-4.46,8.79c-2.22,3.9-2.88,6.78-2.71,9.06a10.81,10.81,0,0,0,2.65,6c.74.94,1.59,1.87,2.51,2.85l.38.4c.8.85,1.64,1.74,2.45,2.68a23.12,23.12,0,0,1,4.76,8c.83,2.57,3.2,5.72,6.53,9a71.61,71.61,0,0,0,11.52,8.92A47.7,47.7,0,0,0,202.35,631a10.91,10.91,0,0,0,3.9.52,1.89,1.89,0,0,0,1.6-.82l.82-1.46,1.19,1.19a9.82,9.82,0,0,0,7.07,3.17,22.8,22.8,0,0,0,7.35-1.51l.63-.21a21.79,21.79,0,0,1,6.55-1.48,6.32,6.32,0,0,1,3.44.94,7.49,7.49,0,0,1,2.67,3.12c1.61,3.2,4.78,5.88,9,8.13A69.58,69.58,0,0,0,261.48,648c7.53,2,15.39,3.22,21.81,4.25,2.92.47,5.54.89,7.71,1.31l3.07.59-2.62,1.7c-2.81,1.82-6.13,5-9.77,9.42a158.55,158.55,0,0,0-11.43,16,301,301,0,0,0-22.43,43.38c-6.56,15.63-11.6,31.47-13.54,44.82a61.75,61.75,0,0,0-.38,17.71c.77,5,2.48,9,5.2,11.69,6.1,6.07,10.88,8.53,16.71,9.21,5.43.63,11.8-.27,21.12-1.59l3-.41c3.33-.47,11.5-.57,18.68-.64h1.69c3,0,5.73-.05,7.84-.1,1.25,0,2.25-.06,2.93-.11l.48,0a37.72,37.72,0,0,0,2.92-3.69c.21-.32.36-.58.47-.79a14.67,14.67,0,0,0-1.5.22l-1.17.24a29.34,29.34,0,0,1-5,.74,7.19,7.19,0,0,1-3.15-.51,4.07,4.07,0,0,1-2.27-2.47c-1.07-3.15-1.44-5.68-1.1-7.66a5.3,5.3,0,0,1,3.18-4.21,10.62,10.62,0,0,1,5.62-.46,35.8,35.8,0,0,1,6.68,1.75,107.31,107.31,0,0,1,13.55,6.16c1.82,1,3.43,1.84,4.68,2.53l.3.16,2.28,1.2-.42,1.2c24.49,8.44,17.95-3.53,13.68-11.35a37.47,37.47,0,0,1-2.12-4.25l-.54-.2.33-.93a.54.54,0,0,1,.09-.26c.37.13.76.28,1.16.45,0-.08,0-.1,0,0,4.75,2,11.05,6.82,17.73,11.9,11.42,8.7,24,18.24,31.77,16.22l-.32-1.22c4.71-1.23,7.78.13,10.37,1.29l.17.07a14,14,0,0,0,3.66,1.24,7.88,7.88,0,0,0,4.25-.66l1.12-.48.52,1.1c2.13,4.53,6.79,9.18,11,12.76,2.11,1.78,4.08,3.26,5.52,4.29.35.26.68.48,1,.68l.12-.35,1.45,1.45a1.77,1.77,0,0,1-.23,1.1l.54.18c-.62,1.88-1.25,3.77-1.88,5.65l-1.26,3.78c5.35-.76,8.75-2.53,11-4.78,2.5-2.52,3.67-5.8,4.29-9.42a53.52,53.52,0,0,0,.62-5.55c0-.49.07-1,.11-1.48.09-1.37.19-2.73.32-4,.37-3.48,1.08-6.91,3.34-9.22l1.92-2,.25,2.7a1.43,1.43,0,0,0,.34.4,8.4,8.4,0,0,0,1.64,1.11,45.1,45.1,0,0,0,6.36,2.75c5.33,2,12.41,4,19.49,6l7.15,2c4.53,1.26,8.79,2.45,12.26,3.49,2.63.79,4.85,1.51,6.41,2.12a13.48,13.48,0,0,1,1.92.91l.39.27c5.24-1.39,10.26-5.71,15.15-10.37L529.8,815c1.77-1.72,3.52-3.42,5.21-4.89a23.9,23.9,0,0,1,7-4.65c8.78-3.23,15.57-3.59,21.2-3.89,1.85-.1,3.57-.19,5.2-.38a21.57,21.57,0,0,0,9.33-3c3.08-1.88,6.33-5,10.07-10.12l2.3-3.19v3.93a8.15,8.15,0,0,0,1,4.3,5.51,5.51,0,0,0,2.6,2.22c2.32,1,5.66,1.12,9.53.71,2.73-.28,5.58-.79,8.35-1.29l3.3-.57c1.86-.31,3.64-.57,5.24-.67a13.52,13.52,0,0,1,4.3.26h0a18.1,18.1,0,0,1,5.73,3,53.28,53.28,0,0,1,5.46,4.76c1.37,1.35,2.71,2.73,4,4l1,1.06a56.39,56.39,0,0,0,4.1,4,9.5,9.5,0,0,0,1.48,1.06,2,2,0,0,0,.67.26h0a2.94,2.94,0,0,0,.32-1.14,29.81,29.81,0,0,0-.42-7.2c-.5-3.51-1.38-8.15-2.72-14.16l-.14-.35-.27-.59-.2-.43c-.4-.86-1-2-1.64-3.4-.17-.36-.36-.74-.55-1.13-1.27-2.61-2.85-5.87-4.52-9.38-3.8-8.06-8.06-17.64-9.87-24.19a4.14,4.14,0,0,1,.19-2.53,11.57,11.57,0,0,1,1.38-2.6,47.45,47.45,0,0,1,5.24-6.11c3.63-3.7,8.42-8,13.46-12.58l3.3-3C656.68,717.47,663,711.56,668,706a63.93,63.93,0,0,0,6.23-7.91,19.06,19.06,0,0,0,3-6.62l.39-2.16,1.68,1.42c6,5.09,10.16,6.73,12.83,6.54,2.42-.17,4.06-1.91,5-5.21s.93-7.78.29-12.5a57.1,57.1,0,0,0-3.51-13.46h0c-4.06-10-11-14-19.06-18.11l-1.81-.9c-7.61-3.81-16.07-8-23.36-17.53L645,625.7c-18.34-15.21-31-25.73-45-45.25-3.78-5.28-4.86-9.59-4.9-14.14a58.44,58.44,0,0,1,.46-6.95l0-.3c.24-2.36.5-4.88.61-7.74.14-3.75-1.25-7.1-3.58-10.41a76.21,76.21,0,0,0-8.63-9.57l-.38-.38c-6.78-6.79-14.36-14.49-15.75-25.56l-.15-1.18,1.18-.21c3.24-.58,5.69-.09,7.6,1.21a12.73,12.73,0,0,1,4,5c.37.73.71,1.48,1,2.22.1.23.2.45.31.68.44,1,.88,1.87,1.37,2.72a11.82,11.82,0,0,0,1.82,2.45c.41-2.83,2.33-5.74,5.06-8.6,3.73-3.89,9.32-8.05,16.08-12.34,13.54-8.59,32.07-17.89,50.56-26.78,5.81-2.79,11.61-5.54,17.25-8.22,12.39-5.87,24-11.39,33.36-16.22a141.46,141.46,0,0,0,16-9.24,20.41,20.41,0,0,0,3.87-3.34c.81-1,.72-1.39.69-1.46Z"/><path class="cls-1" d="M308.76,148.38Z"/></svg>