<svg width="503" height="669" viewBox="0 0 503 669" fill="none" xmlns="http://www.w3.org/2000/svg">
<path d="M501.303 306.584C501.286 306.622 501.271 306.66 501.257 306.696C501.233 306.764 501.215 306.828 501.201 306.885C501.174 306.993 501.157 307.102 501.145 307.205C501.121 307.41 501.113 307.634 501.115 307.857C501.116 308.084 501.128 308.326 501.146 308.572C501.182 309.062 501.248 309.588 501.328 310.064C501.406 310.531 501.504 310.989 501.614 311.33C501.643 311.418 501.675 311.509 501.713 311.596C501.748 311.678 501.8 311.786 501.875 311.893C501.896 311.923 501.922 311.958 501.955 311.996C501.963 312.006 501.972 312.016 501.982 312.027C501.884 317.122 501.361 324.069 499.857 330.505C498.858 334.778 497.441 338.763 495.474 341.822C493.525 344.854 491.091 346.899 488.047 347.518M501.303 306.584L488.047 347.518M501.303 306.584C498.53 301.099 496.086 297.157 493.722 293.346C493.541 293.054 493.361 292.763 493.181 292.472C490.453 288.066 487.814 283.698 484.926 277.226C481.018 273.191 477.7 268.714 474.982 263.803L474.886 263.629L474.863 263.432C474.767 262.589 474.916 261.691 475.18 260.801C475.445 259.905 475.847 258.954 476.31 257.985C476.833 256.892 477.482 255.686 478.136 254.472C478.609 253.593 479.084 252.709 479.516 251.861C480.586 249.76 481.466 247.736 481.797 245.917C482.123 244.121 481.895 242.652 480.908 241.489L480.907 241.488C472.851 231.961 471.605 222.375 470.455 213.532C470.278 212.17 470.103 210.825 469.906 209.501C469.164 204.519 468.119 199.823 465.558 195.399C463.006 190.989 458.904 186.775 451.931 182.858L451.931 182.858C447.465 180.346 445.185 177.687 444.619 174.769C444.059 171.883 445.246 169.067 446.897 166.416C447.732 165.076 448.717 163.73 449.724 162.391C449.97 162.064 450.216 161.738 450.463 161.413C451.235 160.393 452.005 159.375 452.738 158.341C454.681 155.602 456.252 152.902 456.738 150.16C459.203 136.227 456.437 122.812 451.983 109.285C451.263 107.099 449.338 105.139 446.653 103.267C444.207 101.561 441.275 100.023 438.351 98.4889C438.083 98.3485 437.816 98.2081 437.549 98.0676C434.409 96.4168 431.305 94.7411 429.103 92.8902C426.908 91.0451 425.348 88.7999 425.887 86.0273C427.456 77.9152 422.19 71.1539 416.712 67.7002C413.957 65.9629 411.368 65.2082 409.786 65.4031C409.033 65.4958 408.646 65.7788 408.456 66.1264C408.245 66.5113 408.133 67.2333 408.503 68.4855L409.598 72.1884L406.843 69.4824C405.35 68.0155 403.358 65.7585 401.105 63.2057C400.817 62.88 400.526 62.5494 400.23 62.215C397.602 59.2418 394.65 55.9363 391.652 52.928C388.648 49.9124 385.639 47.2372 382.905 45.5C380.108 43.7228 377.888 43.1129 376.31 43.6744L376.307 43.6755C375.82 43.8466 374.935 44.0308 373.887 44.2344C373.443 44.3206 372.964 44.4113 372.451 44.5085C371.693 44.6519 370.861 44.8094 369.961 44.9869C366.966 45.5775 363.411 46.3537 360.265 47.3893C358.693 47.9069 357.244 48.4823 356.03 49.1204C354.806 49.7633 353.875 50.441 353.285 51.139C352.711 51.8176 352.488 52.4751 352.565 53.1589C352.647 53.8762 353.079 54.7965 354.181 55.9303L356.053 57.8538L353.379 57.6239C351.94 57.5002 350.754 57.316 349.805 57.0709C348.869 56.8293 348.092 56.5109 347.529 56.0744C346.937 55.6149 346.545 54.9861 346.549 54.2144C346.552 53.5052 346.893 52.8669 347.307 52.3378C348.134 51.2817 349.619 50.201 351.38 49.1509C353.171 48.0829 355.358 46.9834 357.69 45.9151C362.357 43.7774 367.676 41.7331 371.734 40.2794C373.763 39.5521 375.485 38.97 376.66 38.5958C376.854 38.5339 377.035 38.4771 377.201 38.426C377.023 38.1184 376.817 37.8868 376.593 37.7145C376.182 37.3975 375.609 37.2037 374.792 37.2154C373.096 37.2397 370.6 38.1465 367.223 40.1588L366.715 40.4618L366.205 40.162C361.261 37.257 357.613 36.796 355.005 38.1544C352.358 39.5333 350.335 43.0058 349.222 49.0993L349.183 49.3124L349.059 49.4903C346.665 52.9368 342.837 55.5176 338.541 57.6629C334.801 59.5301 330.606 61.1133 326.543 62.6468C325.933 62.8773 325.325 63.1067 324.722 63.3357C320.071 65.1031 315.726 66.8477 312.386 68.9581C311.633 69.4338 310.941 69.9226 310.313 70.4281L311.094 70.9908C307.944 76.5851 305.31 82.4115 303.159 88.4711L302.856 89.3266L301.975 89.1069C301.518 88.9929 300.564 88.7608 299.254 88.442C295.657 87.5667 289.375 86.0379 283.309 84.5051C279.167 83.4584 275.108 82.4054 272.046 81.5504C270.517 81.1235 269.225 80.7425 268.292 80.4342C267.828 80.2809 267.433 80.1394 267.136 80.0139C267.135 80.0133 267.134 80.0127 267.132 80.012C267.054 79.9972 266.974 79.9746 266.894 79.9426C266.55 79.8054 266.332 79.5506 266.203 79.3184L267.951 78.3466C267.924 78.2975 267.831 78.1633 267.635 78.0848C267.435 78.0053 267.27 78.0392 267.206 78.0597C267.191 78.0648 267.182 78.0681 267.182 78.0674C267.181 78.0648 267.271 78.0133 267.458 77.8137C267.898 77.3454 268.506 76.4686 269.243 75.2269C270.699 72.7728 272.514 69.1439 274.317 65.2229C276.116 61.308 277.889 57.1296 279.261 53.5889C280.36 50.7542 281.173 48.3995 281.556 46.9167C276.812 46.3554 266.436 46.2077 256.768 46.7426C251.555 47.0309 246.604 47.5151 242.901 48.2261C241.044 48.5827 239.55 48.9876 238.506 49.4315C237.983 49.6536 237.616 49.8682 237.379 50.0614C237.139 50.2573 237.103 50.3734 237.099 50.3889L235.146 49.9608C235.589 47.7987 235.778 46.137 235.769 44.8663C235.76 43.5899 235.553 42.7771 235.269 42.258C234.774 41.3528 233.842 41.0178 232.047 41.0663C231.21 41.0889 230.283 41.1922 229.246 41.3075L229.086 41.3253C228.003 41.4458 226.821 41.5728 225.61 41.606C223.187 41.6725 220.549 41.3676 218.13 39.8182L215.615 38.2079L218.592 37.9791C222.399 37.6864 225.001 36.8917 226.698 35.8139C228.359 34.7592 229.181 33.4191 229.443 31.8881C229.713 30.3125 229.403 28.4439 228.6 26.3709C227.8 24.3067 226.54 22.1139 225.006 19.9268C221.937 15.5522 217.85 11.3067 214.433 8.30881C212.723 6.80863 211.207 5.64361 210.093 4.93653C209.535 4.58253 209.126 4.3743 208.867 4.28328C199.577 8.28489 192.349 8.01012 184.703 6.45604C182.207 5.94869 179.699 5.31585 177.072 4.65311C171.818 3.32754 166.089 1.88231 159.036 1.08205C157.438 6.48483 159.907 11.0531 163.731 15.4893C165.232 17.2306 166.895 18.8995 168.557 20.5667C169.111 21.1223 169.664 21.6778 170.212 22.2357C172.372 24.4377 174.432 26.6752 175.824 28.9917C177.185 31.2555 177.849 33.2883 177.895 35.134C177.942 36.9992 177.355 38.5931 176.358 39.9516C174.415 42.5973 170.905 44.3536 167.523 45.7698C166.514 46.1922 165.469 46.6026 164.461 46.9984C163.778 47.2663 163.113 47.5275 162.488 47.781C160.898 48.426 159.505 49.0459 158.427 49.7037C157.329 50.3745 156.708 50.9976 156.465 51.5805C156.292 51.9935 156.258 52.5126 156.616 53.2409C156.874 53.364 157.196 53.5743 157.525 53.8046C158.307 54.3517 159.462 55.2544 160.803 56.3859C163.487 58.6507 166.989 61.8933 169.833 65.1683C171.254 66.8047 172.531 68.4718 173.46 70.046C174.374 71.5943 175.023 73.1699 175.033 74.5951C175.038 75.3295 174.874 76.0465 174.469 76.6844C174.064 77.3222 173.463 77.813 172.705 78.1658C171.533 78.7113 169.929 78.9544 167.869 78.9079C170.595 84.5173 174.113 89.4527 177.042 93.5626C177.158 93.7247 177.272 93.8855 177.386 94.045L178.299 95.327L176.75 95.609C171.84 96.5031 167.833 94.6242 164.57 93.0948C163.9 92.7807 163.262 92.4813 162.653 92.2237C160.802 91.44 159.273 91.0367 157.819 91.3487C156.396 91.654 154.817 92.6998 153.015 95.3652C150.681 98.8232 149.757 103.156 149.847 107.608C149.937 112.057 151.041 116.557 152.686 120.272L153.664 122.48L151.412 121.61C145.484 119.32 142.252 118.236 140.537 117.969C140.12 117.905 139.846 117.898 139.673 117.915C139.639 117.919 139.612 117.923 139.59 117.927C139.584 117.99 139.581 118.098 139.596 118.273C139.626 118.599 139.696 118.959 139.785 119.414C139.831 119.654 139.883 119.92 139.937 120.221C140.083 121.039 140.217 122.008 140.182 123.062C140.11 125.219 139.333 127.635 136.785 129.933L136.688 130.021L136.571 130.08C133.644 131.581 130.966 131.887 128.831 130.432C126.782 129.035 125.584 126.229 124.983 122.437L124.789 121.208L126.031 121.282C127.506 121.371 128.418 121.163 128.952 120.862C129.434 120.591 129.677 120.208 129.757 119.674C129.845 119.089 129.736 118.3 129.387 117.329C129.044 116.372 128.495 115.312 127.796 114.221C126.397 112.035 124.456 109.813 122.565 108.144C121.62 107.31 120.709 106.633 119.903 106.169C119.07 105.69 118.46 105.503 118.089 105.501H118.089C114.752 105.485 110.312 106.336 105.46 107.66C100.626 108.978 95.4551 110.744 90.6804 112.513C85.9077 114.281 81.5442 116.047 78.3242 117.364C77.9253 117.527 77.5435 117.683 77.1803 117.832C76.0808 118.282 75.152 118.662 74.4398 118.946C74.0523 119.1 73.7201 119.23 73.4545 119.328C73.4152 120.457 73.3725 121.489 73.3333 122.436C73.2475 124.509 73.1785 126.176 73.1988 127.565C73.2303 129.725 73.484 130.95 74.0556 131.801C74.6141 132.632 75.5948 133.277 77.5495 133.948C79.2709 134.54 81.5843 135.101 84.7486 135.87C85.1823 135.975 85.632 136.084 86.0983 136.198L89.4145 137.006L86.1864 138.115C84.7221 138.618 83.4586 139.846 82.3619 141.803C81.2661 143.759 80.3948 146.342 79.6741 149.37C78.4408 154.552 77.6896 160.84 76.9355 167.153C76.8072 168.227 76.6789 169.301 76.5481 170.371C75.6563 177.663 74.6463 184.782 72.7138 189.713C71.7478 192.178 70.5003 194.235 68.7967 195.467C67.0277 196.746 64.894 197.044 62.4278 196.229L62.4276 196.229C59.8836 195.387 57.9762 195.241 56.5867 195.505C55.2281 195.764 54.3274 196.421 53.7422 197.307C52.518 199.162 52.5302 202.281 53.6033 205.459C54.6673 208.61 56.647 211.425 58.8357 212.646C59.9032 213.241 60.9829 213.44 62.049 213.178C63.1256 212.913 64.326 212.144 65.555 210.539L66.2293 209.658L67.0357 210.42C70.8434 214.017 72.3312 217.723 72.1191 221.438C71.9103 225.093 70.0634 228.58 67.5861 231.803C65.1021 235.034 61.9002 238.107 58.8335 240.93C58.235 241.481 57.6429 242.021 57.0622 242.551C55.0687 244.371 53.2092 246.068 51.6855 247.649C53.5432 248.526 54.8627 249.4 55.6684 250.302C56.1719 250.866 56.5155 251.486 56.6198 252.163C56.726 252.853 56.5676 253.498 56.2476 254.069C55.6427 255.149 54.4232 256.031 53.0591 256.779C51.6566 257.548 49.9265 258.266 48.1018 258.944C46.5324 259.528 44.863 260.094 43.2399 260.644C42.9728 260.734 42.7069 260.825 42.4429 260.914C40.5644 261.553 38.7841 262.169 37.281 262.782C35.7552 263.405 34.6137 263.985 33.9516 264.523C33.621 264.792 33.4942 264.984 33.4546 265.084C33.4359 265.131 33.4287 265.152 33.4725 265.232L31.8896 266.421C27.9911 262.537 24.5017 260.835 21.6678 260.546C18.8762 260.26 16.6047 261.329 15.0071 263.27C11.7559 267.219 11.2258 274.962 15.7888 282.198L15.7889 282.198C17.5953 285.064 18.2804 289.1 18.4425 293.355C18.6058 297.642 18.2413 302.315 17.8266 306.557C17.7215 307.632 17.6137 308.676 17.5101 309.679C17.201 312.671 16.9298 315.296 16.8831 317.285C16.8514 318.634 16.9307 319.539 17.098 320.032C17.1557 320.203 17.201 320.253 17.2006 320.254C17.2004 320.254 17.192 320.245 17.1728 320.232C17.1388 320.21 17.1075 320.198 17.083 320.193L18.0839 321.834C17.7772 322.141 17.1976 322.556 16.5361 323.005C15.8768 323.452 15.046 323.993 14.1223 324.594L13.9837 324.684C12.0158 325.965 9.62586 327.525 7.41551 329.136C5.18907 330.758 3.21601 332.383 2.04003 333.785C1.44516 334.494 1.13176 335.057 1.03328 335.463C0.953488 335.792 1.01575 335.96 1.19666 336.129L1.197 336.13C5.6809 340.325 6.85993 342.703 6.9477 345.356C6.96826 345.978 6.92889 346.593 6.88046 347.207C6.8695 347.345 6.8581 347.484 6.84665 347.623C6.80649 348.111 6.76572 348.606 6.74118 349.149C6.67931 350.518 6.72373 352.161 7.19214 354.345M501.303 306.584L161.863 633.22M488.047 347.518C488.099 347.538 488.07 347.514 487.987 347.53L488.177 348.511L487.985 347.531C488.005 347.527 488.026 347.522 488.047 347.518ZM469.889 342.821C469.912 342.878 469.982 343.196 469.349 343.977C468.758 344.708 467.742 345.596 466.298 346.63C463.425 348.686 459.085 351.16 453.727 353.95C446.371 357.78 437.193 362.158 427.432 366.813C422.983 368.935 418.412 371.115 413.839 373.327C399.26 380.377 384.658 387.749 373.986 394.561C368.655 397.964 364.251 401.26 361.315 404.342C359.158 406.606 357.644 408.913 357.322 411.158M469.889 342.821L210.23 642.38M469.889 342.821L470.819 342.453L469.889 342.821C469.889 342.821 469.889 342.821 469.889 342.821ZM357.322 411.158C356.779 410.614 356.315 409.959 355.888 409.218C355.501 408.544 355.155 407.819 354.807 407.06C354.725 406.882 354.643 406.702 354.561 406.52C354.296 405.937 354.025 405.339 353.739 404.766C352.993 403.268 352.066 401.755 350.605 400.758C349.101 399.732 347.174 399.342 344.621 399.797L343.687 399.963L343.804 400.905C344.899 409.678 350.873 415.784 356.223 421.164L356.523 421.466C359.122 424.078 361.544 426.512 363.325 429.057C365.159 431.679 366.25 434.334 366.141 437.305C366.06 439.574 365.853 441.574 365.66 443.442L365.635 443.68C365.436 445.604 365.256 447.415 365.272 449.187C365.305 452.802 366.157 456.216 369.135 460.398C380.155 475.874 390.152 484.213 404.609 496.274C405.8 497.268 407.022 498.287 408.277 499.338M357.322 411.158C357.61 411.447 357.921 411.704 358.26 411.926L344.797 400.781C350.404 399.783 351.995 403.287 353.645 406.921C354.584 408.99 355.542 411.101 357.272 412.448C357.242 412.021 357.26 411.591 357.322 411.158ZM408.277 499.338C414.024 506.863 420.692 510.214 426.694 513.23C427.173 513.471 427.648 513.709 428.118 513.948C434.492 517.183 439.938 520.375 443.142 528.306L443.142 528.307C444.404 531.423 445.409 535.247 445.909 538.975C446.412 542.72 446.392 546.274 445.68 548.887C444.968 551.499 443.674 552.884 441.767 553.017C439.664 553.164 436.404 551.867 431.658 547.832L430.333 546.706L430.026 548.417C429.754 549.932 428.954 551.697 427.689 553.669C426.431 555.631 424.75 557.741 422.782 559.941C418.844 564.343 413.825 569.03 408.901 573.523C408.03 574.318 407.162 575.106 406.303 575.886C402.326 579.501 398.553 582.928 395.692 585.863C393.955 587.646 392.514 589.287 391.558 590.709C391.08 591.42 390.7 592.111 390.471 592.764C390.245 593.411 390.137 594.108 390.321 594.776C391.751 599.967 395.108 607.557 398.107 613.948C399.416 616.737 400.665 619.315 401.669 621.386C401.819 621.697 401.964 621.996 402.103 622.282C402.636 623.384 403.076 624.298 403.392 624.975C403.45 625.1 403.504 625.216 403.553 625.323C403.636 625.506 403.705 625.661 403.76 625.789C403.857 626.017 403.877 626.087 403.873 626.068C404.928 630.833 405.624 634.508 406.017 637.287C406.413 640.091 406.488 641.907 406.347 642.997C406.276 643.546 406.161 643.803 406.093 643.903C406.091 643.905 406.089 643.908 406.088 643.91C406.018 643.903 405.852 643.866 405.563 643.707C405.242 643.531 404.852 643.252 404.391 642.866C403.47 642.095 402.386 641 401.163 639.73C400.901 639.458 400.634 639.179 400.361 638.895C399.374 637.864 398.319 636.764 397.237 635.699C395.855 634.34 394.4 633.013 392.932 631.926C391.471 630.844 389.944 629.96 388.417 629.541L388.416 629.541C387.443 629.275 386.267 629.246 385.026 629.328C383.77 629.411 382.365 629.614 380.901 629.859C380.049 630.002 379.178 630.158 378.297 630.317C376.113 630.71 373.87 631.113 371.712 631.34C368.666 631.661 366.035 631.595 364.2 630.772C363.312 630.374 362.627 629.806 362.154 629.016C361.677 628.219 361.375 627.123 361.378 625.608L361.385 622.493L359.566 625.021C356.62 629.116 354.06 631.551 351.634 633.041C349.222 634.522 346.876 635.11 344.277 635.407C342.994 635.553 341.636 635.626 340.179 635.705C335.743 635.943 330.39 636.231 323.469 638.788C321.635 639.466 319.776 640.854 317.927 642.479C316.602 643.644 315.222 644.987 313.82 646.352C313.261 646.896 312.698 647.444 312.133 647.986C308.278 651.684 304.316 655.103 300.19 656.208C300.086 656.126 299.979 656.054 299.879 655.991C299.496 655.754 298.971 655.514 298.364 655.273C297.137 654.784 295.388 654.214 293.316 653.589C290.581 652.764 287.221 651.825 283.654 650.827C281.812 650.312 279.915 649.782 278.02 649.243C272.435 647.657 266.859 646.002 262.657 644.453C260.552 643.677 258.832 642.943 257.64 642.273C257.041 641.937 256.617 641.64 256.349 641.391C256.136 641.192 256.089 641.086 256.082 641.072L255.884 638.931L254.371 640.49C252.594 642.322 252.034 645.043 251.743 647.803C251.634 648.831 251.56 649.914 251.485 650.998C251.458 651.389 251.431 651.78 251.403 652.169C251.294 653.653 251.16 655.132 250.914 656.568C250.423 659.441 249.498 662.042 247.533 664.042C245.78 665.825 243.102 667.229 238.885 667.829C239.215 666.832 239.546 665.834 239.876 664.836C240.372 663.342 240.867 661.847 241.36 660.357L240.93 660.214C241.066 659.992 241.149 659.704 241.118 659.335L239.971 658.189L239.878 658.469C239.653 658.311 239.398 658.13 239.118 657.927C237.982 657.107 236.431 655.934 234.771 654.528C231.417 651.688 227.749 648.002 226.066 644.413L225.658 643.542L224.772 643.916C223.417 644.488 222.357 644.572 221.426 644.438C220.461 644.3 219.58 643.924 218.543 643.461L218.409 643.402C216.363 642.487 213.948 641.408 210.23 642.38M408.277 499.338C408.306 499.362 408.335 499.386 408.363 499.41L409.005 498.643L408.209 499.248C408.232 499.278 408.255 499.308 408.277 499.338ZM210.23 642.38C210.23 642.38 210.231 642.379 210.231 642.379L210.48 643.338L210.23 642.38ZM161.863 633.22C161.864 633.221 161.822 633.204 161.712 633.15C161.611 633.101 161.482 633.034 161.32 632.948C160.998 632.777 160.577 632.545 160.066 632.263L159.831 632.134C158.843 631.588 157.577 630.889 156.143 630.13C153.048 628.493 149.132 626.555 145.462 625.249C143.628 624.596 141.823 624.089 140.193 623.863C138.584 623.64 137.027 623.674 135.767 624.225C134.429 624.809 133.538 625.929 133.26 627.566C132.993 629.129 133.285 631.137 134.129 633.634L135.07 633.315L134.129 633.634C134.455 634.597 135.102 635.234 135.913 635.597C136.682 635.941 137.562 636.024 138.399 636.001C139.69 635.967 141.151 635.662 142.356 635.411C142.684 635.343 142.993 635.278 143.275 635.224C143.774 635.129 144.166 635.069 144.46 635.048M161.863 633.22C161.862 633.22 161.861 633.219 161.86 633.219L161.532 634.164M161.863 633.22L161.532 634.164M144.46 635.048C144.376 635.216 144.257 635.423 144.091 635.676C143.636 636.372 142.896 637.321 141.787 638.595M144.46 635.048C144.586 635.04 144.695 635.038 144.786 635.044C144.937 635.053 144.924 635.078 144.85 635.031C144.722 634.951 144.634 634.801 144.62 634.671C144.612 634.603 144.636 634.639 144.553 634.845C144.529 634.905 144.498 634.972 144.46 635.048ZM141.787 638.595C141.69 638.605 141.565 638.616 141.409 638.626C140.873 638.662 140.083 638.69 139.097 638.711C137.438 638.748 135.272 638.767 132.922 638.788C132.484 638.792 132.039 638.796 131.59 638.8C125.929 638.852 119.495 638.932 116.87 639.301C116.061 639.414 115.279 639.525 114.521 639.633C107.175 640.676 102.151 641.389 97.8728 640.889C93.2782 640.351 89.508 638.397 84.7008 633.592C82.5549 631.447 81.211 628.311 80.6046 624.323C79.9986 620.337 80.1418 615.575 80.9043 610.28C82.4294 599.693 86.4067 587.141 91.5714 574.749C96.7329 562.365 103.061 550.188 109.256 540.356C112.354 535.441 115.411 531.123 118.264 527.665C121.129 524.193 123.747 521.638 125.96 520.196L128.03 518.846L125.604 518.376C123.896 518.046 121.83 517.712 119.533 517.341C114.467 516.522 108.279 515.522 102.339 513.973C98.0441 512.853 93.957 511.462 90.616 509.682C87.2637 507.897 84.7635 505.773 83.4948 503.239L82.6006 503.686M141.787 638.595C141.723 638.669 141.658 638.743 141.592 638.818L141.308 639.142L141.348 639.57C141.315 639.213 141.471 638.963 141.597 638.823C141.641 638.774 141.681 638.739 141.709 638.717C141.823 638.627 141.926 638.59 141.945 638.582C141.999 638.563 142.018 638.564 141.96 638.573C141.918 638.58 141.86 638.588 141.787 638.595ZM82.6006 503.686L83.4948 503.239C82.9344 502.12 82.2388 501.297 81.3921 500.76C80.5417 500.221 79.6164 500.019 78.6818 500.015C77.0539 500.008 75.2399 500.615 73.5173 501.192C73.3499 501.248 73.1834 501.304 73.018 501.359C71.0614 502.008 69.1345 502.589 67.2256 502.554C65.3764 502.521 63.5032 501.907 61.6519 500.039L60.7186 499.098L60.0697 500.254C59.8935 500.568 59.544 500.825 58.807 500.905C58.0498 500.987 57.0142 500.858 55.7357 500.493C53.1916 499.768 49.9787 498.196 46.7213 496.141C43.473 494.092 40.2354 491.597 37.639 489.065C35.0156 486.507 33.15 484.012 32.4929 481.972C31.653 479.365 30.2291 477.343 28.7401 475.602C28.1005 474.854 27.4388 474.147 26.8088 473.473C26.7094 473.367 26.6107 473.261 26.5131 473.157C25.7887 472.38 25.1166 471.646 24.5282 470.897C23.3585 469.408 22.5736 467.928 22.4427 466.129C22.3109 464.319 22.8316 462.037 24.5797 458.939C26.3798 455.751 27.4937 453.573 28.0978 451.975C28.7067 450.364 28.8508 449.207 28.5487 448.124C28.4044 447.607 28.1719 447.158 27.9273 446.742C27.8157 446.552 27.6946 446.357 27.5747 446.164L27.5416 446.111C27.4086 445.897 27.2736 445.679 27.135 445.442C26.5932 444.515 25.9767 443.269 25.487 441.232L25.391 440.833L25.0418 440.616C21.7085 438.549 18.563 434.698 16.1369 430.03C13.718 425.376 12.0668 420.01 11.6507 415.014C11.2329 409.998 12.0692 405.498 14.4464 402.425C16.7776 399.411 20.7485 397.57 27.0874 398.164L29.2312 398.365L28.0016 396.597C24.4599 391.506 22.322 385.837 20.5147 380.666C20.3291 380.135 20.1466 379.608 19.9661 379.087C19.2741 377.089 18.6122 375.178 17.923 373.46C17.1731 371.59 16.3671 369.886 15.4082 368.486M82.6006 503.686C87.3376 513.149 107.001 516.328 119.447 518.34C121.123 518.611 122.668 518.861 124.028 519.102M82.6006 503.686C80.6821 499.855 77.4981 500.918 73.8031 502.151C70.0304 503.411 65.725 504.848 61.6896 501.436C61.7329 501.371 61.7744 501.303 61.8138 501.233L60.9417 500.743L60.2316 501.447C60.239 501.455 60.2465 501.462 60.254 501.47C55.3454 504.612 34.3162 490.892 31.5411 482.279C30.4198 478.798 28.1727 476.395 26.0804 474.158C22.3269 470.145 19.0717 466.664 23.7089 458.448C28.6231 449.744 28.1656 449.008 26.7237 446.689C26.0532 445.611 25.1698 444.19 24.5147 441.466L124.028 519.102M15.4082 368.486C15.5253 368.169 15.53 367.85 15.5001 367.585C15.436 367.018 15.1745 366.391 14.8672 365.795C14.2367 364.572 13.1801 363.048 12.0795 361.535C11.6273 360.913 11.1689 360.295 10.7205 359.69C10.0521 358.788 9.40597 357.916 8.83642 357.109C8.36542 356.442 7.96709 355.846 7.67285 355.348C7.36236 354.822 7.22497 354.498 7.19214 354.345M15.4082 368.486C15.3961 368.519 15.3828 368.551 15.3683 368.584C15.2325 368.888 15.012 369.124 14.7387 369.283L0.513754 336.86C6.28502 342.26 6.12027 344.26 5.85082 347.531C5.70713 349.275 5.53366 351.381 6.21465 354.556M15.4082 368.486C15.2568 368.265 15.1016 368.051 14.9421 367.846L14.4086 368.26C15.0881 367.263 12.4082 363.647 9.93015 360.303C8.13078 357.875 6.43782 355.59 6.21465 354.556M7.19214 354.345C7.19223 354.346 7.19232 354.346 7.19242 354.347L6.21465 354.556M7.19214 354.345L6.21465 354.556M156.197 54.1488L156.883 53.7073L156.887 53.7141C156.889 53.7183 156.893 53.7254 156.898 53.7352C156.907 53.7518 156.926 53.7906 156.944 53.8469L156.945 53.8486C156.956 53.8831 157.066 54.2184 156.877 54.5722C156.581 54.3669 156.35 54.223 156.197 54.1488ZM156.197 54.1488L156.051 54.2435L156.042 54.2489L155.202 54.7909C155.202 54.7908 155.201 54.7907 155.201 54.7906C154.318 53.4196 154.091 52.0731 154.619 50.8096C155.111 49.633 156.18 48.7329 157.385 47.9968C158.612 47.2477 160.135 46.5771 161.736 45.9277C162.411 45.6539 163.091 45.3873 163.775 45.1187C164.756 44.734 165.747 44.3451 166.751 43.925C170.159 42.4978 173.169 40.9157 174.745 38.768C175.508 37.7298 175.93 36.5631 175.896 35.184C175.861 33.7855 175.353 32.0902 174.11 30.022L174.967 29.5068L156.197 54.1488ZM118.094 104.501L118.098 103.501C118.098 103.501 118.099 103.501 118.099 103.501C118.995 103.505 119.973 103.901 120.901 104.436C121.856 104.985 122.878 105.752 123.889 106.645C125.911 108.429 127.975 110.791 129.48 113.142C130.233 114.318 130.861 115.515 131.27 116.654C131.674 117.78 131.892 118.928 131.735 119.972C131.57 121.067 130.993 122.008 129.933 122.605C129.194 123.021 128.268 123.243 127.172 123.292C127.785 126.24 128.773 127.972 129.957 128.779C131.185 129.616 132.953 129.659 135.542 128.36C137.58 126.48 138.129 124.622 138.183 122.996C138.211 122.146 138.104 121.335 137.968 120.572C137.931 120.364 137.889 120.147 137.846 119.928C137.745 119.408 137.643 118.882 137.604 118.452C137.552 117.872 137.552 116.958 138.293 116.367C138.643 116.088 139.061 115.967 139.47 115.926C139.878 115.884 140.338 115.915 140.844 115.993C142.563 116.26 145.407 117.191 149.991 118.925C148.734 115.464 147.926 111.548 147.847 107.649C147.751 102.918 148.728 98.1426 151.357 94.2464L151.358 94.2458C153.313 91.3528 155.276 89.8488 157.399 89.3932C159.491 88.9443 161.512 89.5689 163.433 90.3819C164.153 90.687 164.869 91.0196 165.589 91.354C168.412 92.6655 171.298 94.0057 174.777 93.8296L72.4829 117.55M118.094 104.501C107.228 104.448 85.9316 113.168 76.7965 116.908C74.3461 117.911 72.7708 118.556 72.5065 118.578L72.4791 118.577L72.249 119.55C72.3184 119.566 72.3851 119.574 72.445 119.577C72.1833 126.874 71.7864 130.359 73.3027 132.469C74.7241 134.448 77.8272 135.218 84.2996 136.79C83.9182 137.011 83.5565 137.267 83.2132 137.555M118.094 104.501C123.016 104.523 137.641 121.982 126.987 122.298L118.094 104.501ZM83.2132 137.555C80.5837 136.914 78.5065 136.392 76.8997 135.84C74.8275 135.128 73.3272 134.303 72.3956 132.916C71.477 131.549 71.2313 129.809 71.199 127.595C71.178 126.151 71.2506 124.391 71.3382 122.269C71.3851 121.134 71.4362 119.895 71.4796 118.545L71.5189 117.322L72.4829 117.55M83.2132 137.555C83.5557 137.638 83.9075 137.724 84.2689 137.811C84.336 137.828 84.4034 137.844 84.4711 137.86M83.2132 137.555C82.1985 138.405 81.3442 139.528 80.6171 140.825C79.3906 143.014 78.4675 145.802 77.7284 148.907C76.466 154.211 75.6992 160.634 74.9468 166.937C74.8192 168.007 74.692 169.072 74.5629 170.128C73.6641 177.478 72.6747 184.331 70.8517 188.983C69.9398 191.31 68.8705 192.946 67.6249 193.846C66.4447 194.7 64.9968 194.972 63.0557 194.33M72.4829 117.55C72.4295 117.568 72.3903 117.58 72.3633 117.588C72.3519 117.591 72.3467 117.592 72.3467 117.592C72.3467 117.592 72.3535 117.59 72.3654 117.588C72.3767 117.587 72.4075 117.582 72.4509 117.579C72.4838 117.578 72.5832 117.574 72.7092 117.604L72.4829 117.55ZM84.4711 137.86L15.4923 321.296C15.3653 321.093 15.273 320.878 15.2038 320.674C14.9123 319.814 14.8518 318.592 14.8837 317.238C14.9324 315.162 15.2161 312.418 15.5282 309.398C15.6302 308.411 15.7352 307.395 15.8361 306.363C16.2498 302.131 16.6017 297.573 16.444 293.432C16.285 289.259 15.6118 285.668 14.0971 283.265C9.20885 275.513 9.51841 266.791 13.463 261.999C15.4634 259.569 18.3787 258.199 21.8712 258.556C24.9387 258.87 28.3555 260.503 31.9488 263.724M84.4711 137.86C78.9914 141.502 77.4547 154.37 75.9412 167.045C74.0508 182.875 72.1965 198.404 62.7416 195.28C42.048 188.434 55.2083 223.523 65.7087 211.918C65.957 212.154 66.1934 212.389 66.4182 212.624M84.4711 137.86L67.0658 211.855C66.853 212.128 66.637 212.384 66.4182 212.624M63.0557 194.33C60.3205 193.425 58.0503 193.191 56.2124 193.541C54.3435 193.897 52.9668 194.852 52.0731 196.206C50.3396 198.832 50.5636 202.709 51.7084 206.099C52.8623 209.516 55.0819 212.842 57.8618 214.392C59.2786 215.182 60.8754 215.526 62.5265 215.12C63.8922 214.784 65.2002 213.959 66.4182 212.624M63.0557 194.33L62.7435 195.274L63.0554 194.33C63.0555 194.33 63.0556 194.33 63.0557 194.33ZM66.4182 212.624C69.3028 215.635 70.2811 218.543 70.1223 221.324C69.947 224.394 68.3767 227.492 66.0004 230.584C63.6308 233.666 60.5424 236.638 57.479 239.458C56.9014 239.99 56.3234 240.517 55.7513 241.039C53.3198 243.258 50.9939 245.381 49.2539 247.326L48.3194 248.371L49.6117 248.915C52.1021 249.962 53.5027 250.88 54.1768 251.634C54.5015 251.998 54.6134 252.275 54.6431 252.467C54.6708 252.647 54.6414 252.844 54.5029 253.092C54.1906 253.649 53.4098 254.306 52.0976 255.026C50.8237 255.724 49.2014 256.402 47.4046 257.07C45.8653 257.642 44.2277 258.197 42.6031 258.748C42.3347 258.839 42.0666 258.93 41.7994 259.021C39.9256 259.657 38.0917 260.292 36.5257 260.931C34.9823 261.56 33.6 262.232 32.6904 262.971C32.4192 263.191 32.1603 263.441 31.9488 263.724M31.9488 263.724C31.8053 263.916 31.6836 264.124 31.5949 264.348C31.5538 264.452 31.5207 264.557 31.4959 264.663L50.7448 248.66C50.817 248.579 50.8903 248.498 50.9646 248.416C61.6915 253.334 51.8589 256.667 42.9229 259.695C38.2235 261.288 33.772 262.797 32.6893 264.408C32.4417 264.173 32.1948 263.945 31.9488 263.724ZM124.028 519.102C124.312 518.894 124.592 518.7 124.868 518.52L125.414 519.358L125.224 520.34C124.922 520.282 124.608 520.223 124.28 520.163M124.028 519.102L124.28 520.163M124.28 520.163C105.092 534.843 65.59 615.904 83.9938 634.299C93.3511 643.652 99.2744 642.81 114.621 640.629C115.393 640.519 116.188 640.406 117.009 640.291C119.75 639.906 126.91 639.842 132.922 639.788C138.063 639.742 142.364 639.704 142.343 639.478C147.808 633.255 145.519 633.731 142.093 634.444C139.357 635.013 135.895 635.733 135.076 633.313C129.378 616.463 151.954 628.927 159.349 633.01C160.496 633.643 161.278 634.075 161.532 634.164M124.28 520.163L225.161 644.838C222.08 646.137 220.116 645.26 218.02 644.323C216.001 643.421 213.86 642.464 210.483 643.347C204.331 644.95 194.449 637.385 185.444 630.492C180.18 626.462 175.216 622.662 171.473 621.058C171.462 620.978 171.476 620.991 171.464 621.054C171.149 620.919 170.843 620.8 170.547 620.698C170.51 620.754 170.486 620.822 170.476 620.902L170.22 621.643C170.359 621.691 170.5 621.742 170.643 621.798C170.941 622.637 171.586 623.825 172.314 625.165C175.683 631.372 180.832 640.855 161.532 634.164M139.603 117.854C139.603 117.854 139.603 117.855 139.602 117.858C139.603 117.855 139.603 117.854 139.603 117.854Z" stroke="white" stroke-width="2"/>
</svg>
