<svg id="Layer_1" data-name="Layer 1" xmlns="http://www.w3.org/2000/svg" viewBox="0 0 868.37 843.31"><defs><style>.cls-1{fill:#40434b;}.cls-2,.cls-3{fill:#fff;}.cls-3{font-size:22px;font-family:NeuzeitGro-Reg, Neuzeit Grotesk;}.cls-4{letter-spacing:0.01em;}.cls-5{letter-spacing:-0.01em;}.cls-6{letter-spacing:0.01em;}.cls-7{letter-spacing:-0.01em;}.cls-8{letter-spacing:-0.02em;}.cls-9{letter-spacing:-0.01em;}.cls-10{letter-spacing:0.02em;}.cls-11{letter-spacing:0em;}.cls-12{letter-spacing:-0.01em;}.cls-13{letter-spacing:-0.02em;}.cls-14{letter-spacing:0em;}.cls-15{letter-spacing:0.02em;}.cls-16{letter-spacing:0.02em;}.cls-17{letter-spacing:-0.03em;}.cls-18{letter-spacing:0em;}.cls-19{letter-spacing:-0.02em;}.cls-20{letter-spacing:-0.01em;}.cls-21{letter-spacing:0em;}.cls-22{letter-spacing:-0.01em;}.cls-23{letter-spacing:-0.01em;}.cls-24{letter-spacing:-0.03em;}.cls-25{letter-spacing:0em;}.cls-26{letter-spacing:-0.01em;}.cls-27{letter-spacing:-0.02em;}.cls-28{letter-spacing:-0.03em;}.cls-29{letter-spacing:0em;}</style></defs><rect class="cls-1" x="91.9" y="773.92" width="174.17" height="24.71"/><rect class="cls-1" x="183.2" y="802.46" width="82.88" height="24.71"/><rect class="cls-1" x="167.28" y="541.7" width="165.35" height="24.71"/><rect class="cls-1" x="245.91" y="570.24" width="86.72" height="24.71"/><rect class="cls-1" x="44.49" y="451.26" width="175.76" height="24.71"/><rect class="cls-1" x="172.99" y="479.8" width="47.25" height="24.71"/><rect class="cls-1" y="350.58" width="175.76" height="24.71"/><rect class="cls-1" x="71.28" y="379.12" width="104.47" height="24.71"/><rect class="cls-1" x="201.95" y="241.12" width="175.76" height="24.71"/><rect class="cls-1" x="279.47" y="269.65" width="98.23" height="24.71"/><rect class="cls-1" x="189.29" y="127.85" width="162.3" height="24.71"/><rect class="cls-1" x="275.21" y="156.38" width="77.03" height="24.71"/><rect class="cls-1" x="438.15" y="123.34" width="166.1" height="24.71"/><rect class="cls-1" x="438.15" y="151.87" width="95.81" height="24.71"/><rect class="cls-1" x="535.73" y="25.43" width="173.32" height="24.71"/><rect class="cls-1" x="535.73" y="53.97" width="78.54" height="24.71"/><rect class="cls-1" x="621.78" y="190.07" width="173.32" height="24.71"/><rect class="cls-1" x="621.78" y="218.6" width="60.7" height="24.71"/><rect class="cls-1" x="358.37" y="313.31" width="173.32" height="24.71"/><rect class="cls-1" x="358.37" y="341.85" width="65.94" height="24.71"/><rect class="cls-1" x="562.95" y="307.16" width="173.32" height="24.71"/><rect class="cls-1" x="562.95" y="335.7" width="75.01" height="24.71"/><rect class="cls-1" x="483.93" y="470.92" width="173.32" height="24.71"/><rect class="cls-1" x="483.93" y="499.46" width="57.87" height="24.71"/><rect class="cls-1" x="514.66" y="569.7" width="173.32" height="24.71"/><rect class="cls-1" x="514.66" y="598.24" width="95.62" height="24.71"/><rect class="cls-1" x="407.54" y="634.68" width="173.32" height="24.71"/><rect class="cls-1" x="407.54" y="663.21" width="44.96" height="24.71"/><rect class="cls-1" x="547.58" y="711.07" width="173.32" height="24.71"/><rect class="cls-1" x="547.58" y="739.6" width="93.71" height="24.71"/><rect class="cls-1" x="691" y="387.94" width="173.32" height="24.71"/><rect class="cls-1" x="691" y="416.48" width="82.34" height="24.71"/><circle class="cls-2" cx="417.66" cy="148.38" r="5.51"/><circle class="cls-2" cx="545.85" cy="99.06" r="5.51"/><circle class="cls-2" cx="343.64" cy="202.03" r="5.51"/><circle class="cls-2" cx="398.69" cy="269.96" r="5.51"/><circle class="cls-2" cx="367.09" cy="386.43" r="5.51"/><circle class="cls-2" cx="258.66" cy="749.69" r="5.51"/><circle class="cls-2" cx="417.66" cy="707.63" r="5.51"/><circle class="cls-2" cx="494.05" cy="591.4" r="5.51"/><circle class="cls-2" cx="631.68" cy="264.45" r="5.51"/><circle class="cls-2" cx="668.98" cy="412.25" r="5.51"/><circle class="cls-2" cx="573.9" cy="386.43" r="5.51"/><circle class="cls-2" cx="494.05" cy="446.68" r="5.51"/><circle class="cls-2" cx="526.73" cy="735.83" r="5.51"/><circle class="cls-2" cx="324.3" cy="518.34" r="5.51"/><circle class="cls-2" cx="211.65" cy="427.1" r="5.51"/><circle class="cls-2" cx="197.44" cy="375.41" r="5.51"/><text class="cls-3" transform="translate(96.88 793.54)"><tspan class="cls-4">Q</tspan><tspan x="16.57" y="0">UE</tspan><tspan class="cls-5" x="40.96" y="0">R</tspan><tspan class="cls-6" x="53.06" y="0">D</tspan><tspan x="67.01" y="0">ENKEN-761</tspan><tspan class="cls-7" x="91.39" y="27">F</tspan><tspan class="cls-8" x="101.18" y="27">r</tspan><tspan x="107.8" y="27">eibu</tspan><tspan class="cls-5" x="147.97" y="27">r</tspan><tspan x="154.75" y="27">g</tspan></text><text class="cls-3" transform="translate(4.64 370.43)"><tspan class="cls-4">Q</tspan><tspan x="16.57" y="0">UE</tspan><tspan class="cls-5" x="40.96" y="0">R</tspan><tspan class="cls-6" x="53.06" y="0">D</tspan><tspan x="67.01" y="0">ENKEN-221</tspan><tspan x="70.2" y="27">Düss</tspan><tspan class="cls-9" x="112.73" y="27">e</tspan><tspan x="124.45" y="27">ldo</tspan><tspan class="cls-10" x="154.17" y="27">r</tspan><tspan x="161.59" y="27">f</tspan></text><text class="cls-3" transform="translate(552.24 730.86)"><tspan class="cls-4">Q</tspan><tspan x="16.57" y="0">UE</tspan><tspan class="cls-5" x="40.96" y="0">R</tspan><tspan class="cls-6" x="53.06" y="0">D</tspan><tspan x="67.01" y="0">ENKEN-089 </tspan><tspan x="0" y="27">Mün</tspan><tspan class="cls-7" x="40.08" y="27">c</tspan><tspan x="49.9" y="27">hen</tspan></text><text class="cls-3" transform="translate(519.56 589.56)"><tspan class="cls-4">Q</tspan><tspan x="16.57" y="0">UE</tspan><tspan class="cls-5" x="40.96" y="0">R</tspan><tspan class="cls-6" x="53.06" y="0">D</tspan><tspan x="67.01" y="0">ENKEN-911</tspan><tspan class="cls-11" x="0" y="27">N</tspan><tspan x="15.07" y="27">ü</tspan><tspan class="cls-12" x="25.74" y="27">r</tspan><tspan x="32.56" y="27">nbe</tspan><tspan class="cls-5" x="68.22" y="27">r</tspan><tspan x="75" y="27">g</tspan></text><text class="cls-3" transform="translate(412.15 654.88)"><tspan class="cls-4">Q</tspan><tspan x="16.57" y="0">UE</tspan><tspan class="cls-5" x="40.96" y="0">R</tspan><tspan class="cls-6" x="53.06" y="0">D</tspan><tspan x="67.01" y="0">ENKEN-731 </tspan><tspan x="0" y="27">Ulm</tspan></text><text class="cls-3" transform="translate(173.53 562.18)"><tspan class="cls-4">Q</tspan><tspan x="16.57" y="0">UE</tspan><tspan class="cls-5" x="40.96" y="0">R</tspan><tspan class="cls-6" x="53.06" y="0">D</tspan><tspan x="67.01" y="0">ENKEN-69</tspan><tspan class="cls-7" x="76.32" y="27">F</tspan><tspan class="cls-13" x="86.11" y="27">r</tspan><tspan class="cls-14" x="92.75" y="27">an</tspan><tspan class="cls-15" x="116.64" y="27">k</tspan><tspan class="cls-9" x="126.9" y="27">f</tspan><tspan x="132.46" y="27">u</tspan><tspan class="cls-16" x="143.13" y="27">r</tspan><tspan x="150.59" y="27">t</tspan></text><text class="cls-3" transform="translate(49.87 470.95)"><tspan class="cls-4">Q</tspan><tspan x="16.57" y="0">UE</tspan><tspan class="cls-5" x="40.96" y="0">R</tspan><tspan class="cls-6" x="53.06" y="0">D</tspan><tspan x="67.01" y="0">ENKEN-221</tspan><tspan class="cls-17" x="127.91" y="27">K</tspan><tspan x="139" y="27">öln</tspan></text><text class="cls-3" transform="translate(488.54 490.53)"><tspan class="cls-4">Q</tspan><tspan x="16.57" y="0">UE</tspan><tspan class="cls-5" x="40.96" y="0">R</tspan><tspan class="cls-6" x="53.06" y="0">D</tspan><tspan x="67.01" y="0">ENKEN-361 </tspan><tspan x="0" y="27">E</tspan><tspan class="cls-10" x="10.41" y="27">r</tspan><tspan class="cls-9" x="17.82" y="27">f</tspan><tspan x="23.39" y="27">u</tspan><tspan class="cls-16" x="34.05" y="27">r</tspan><tspan x="41.51" y="27">t</tspan></text><text class="cls-3" transform="translate(694.49 408.21)"><tspan class="cls-4">Q</tspan><tspan x="16.57" y="0">UE</tspan><tspan class="cls-5" x="40.96" y="0">R</tspan><tspan class="cls-6" x="53.06" y="0">D</tspan><tspan x="67.01" y="0">ENKEN-351 </tspan><tspan x="0" y="27">D</tspan><tspan class="cls-8" x="13.77" y="27">r</tspan><tspan class="cls-18" x="20.39" y="27">e</tspan><tspan x="32.21" y="27">sden</tspan></text><text class="cls-3" transform="translate(540.34 45.87)"><tspan class="cls-4">Q</tspan><tspan x="16.57" y="0">UE</tspan><tspan class="cls-5" x="40.96" y="0">R</tspan><tspan class="cls-6" x="53.06" y="0">D</tspan><tspan x="67.01" y="0">ENKEN-381</tspan><tspan class="cls-19" x="0" y="27">R</tspan><tspan x="11.81" y="27">os</tspan><tspan class="cls-20" x="32.91" y="27">t</tspan><tspan x="38.41" y="27">o</tspan><tspan class="cls-7" x="50.47" y="27">c</tspan><tspan x="60.28" y="27">k</tspan></text><text class="cls-3" transform="translate(192.87 148)"><tspan class="cls-4">Q</tspan><tspan x="16.57" y="0">UE</tspan><tspan class="cls-5" x="40.96" y="0">R</tspan><tspan class="cls-6" x="53.06" y="0">D</tspan><tspan x="67.01" y="0">ENKEN-50</tspan><tspan x="85.65" y="27">B</tspan><tspan class="cls-8" x="97.77" y="27">r</tspan><tspan x="104.39" y="27">emen</tspan></text><text class="cls-3" transform="translate(443.17 142.76)"><tspan class="cls-4">Q</tspan><tspan x="16.57" y="0">UE</tspan><tspan class="cls-5" x="40.96" y="0">R</tspan><tspan class="cls-6" x="53.06" y="0">D</tspan><tspan x="67.01" y="0">ENKEN-40 </tspan><tspan class="cls-21" x="0" y="27">H</tspan><tspan x="14.52" y="27">ambu</tspan><tspan class="cls-22" x="67.47" y="27">r</tspan><tspan x="74.25" y="27">g</tspan></text><text class="cls-3" transform="translate(626.17 210.7)"><tspan class="cls-4">Q</tspan><tspan x="16.57" y="0">UE</tspan><tspan class="cls-5" x="40.96" y="0">R</tspan><tspan class="cls-6" x="53.06" y="0">D</tspan><tspan x="67.01" y="0">ENKEN-30 </tspan><tspan x="0" y="27">Be</tspan><tspan class="cls-12" x="23.98" y="27">r</tspan><tspan x="30.8" y="27">lin</tspan></text><text class="cls-3" transform="translate(205.89 261.49)"><tspan class="cls-4">Q</tspan><tspan x="16.57" y="0">UE</tspan><tspan class="cls-5" x="40.96" y="0">R</tspan><tspan class="cls-6" x="53.06" y="0">D</tspan><tspan x="67.01" y="0">ENKEN-511</tspan><tspan class="cls-21" x="77.73" y="27">H</tspan><tspan x="92.25" y="27">ann</tspan><tspan class="cls-23" x="127.33" y="27">ov</tspan><tspan x="148.43" y="27">er</tspan></text><text class="cls-3" transform="translate(361.58 333.7)"><tspan class="cls-4">Q</tspan><tspan x="16.57" y="0">UE</tspan><tspan class="cls-5" x="40.96" y="0">R</tspan><tspan class="cls-6" x="53.06" y="0">D</tspan><tspan x="67.01" y="0">ENKEN-561</tspan><tspan class="cls-24" x="0" y="27">K</tspan><tspan class="cls-25" x="11.11" y="27">a</tspan><tspan x="23.78" y="27">ss</tspan><tspan class="cls-26" x="41.87" y="27">e</tspan><tspan x="53.59" y="27">l</tspan></text><text class="cls-3" transform="translate(568.39 326.28)"><tspan class="cls-4">Q</tspan><tspan x="16.57" y="0">UE</tspan><tspan class="cls-5" x="40.96" y="0">R</tspan><tspan class="cls-6" x="53.06" y="0">D</tspan><tspan x="67.01" y="0">ENKEN-341 </tspan><tspan class="cls-27" x="0" y="27">L</tspan><tspan x="9.06" y="27">ei</tspan><tspan class="cls-28" x="25.96" y="27">p</tspan><tspan class="cls-9" x="38.04" y="27">z</tspan><tspan class="cls-29" x="46.73" y="27">i</tspan><tspan x="51.74" y="27">g</tspan></text></svg>