<svg id="Layer_1" data-name="Layer 1" xmlns="http://www.w3.org/2000/svg" viewBox="0 0 868.37 843.31"><defs><style>.cls-1{fill:#2d3237;}.cls-2{fill:#fff;}</style></defs><rect class="cls-1" x="91.9" y="773.92" width="174.17" height="24.71"/><rect class="cls-1" x="183.2" y="802.46" width="82.88" height="24.71"/><rect class="cls-1" x="167.28" y="541.7" width="165.35" height="24.71"/><rect class="cls-1" x="245.91" y="570.24" width="86.72" height="24.71"/><rect class="cls-1" x="44.49" y="451.26" width="175.76" height="24.71"/><rect class="cls-1" x="172.99" y="479.8" width="47.25" height="24.71"/><rect class="cls-1" y="350.58" width="175.76" height="24.71"/><rect class="cls-1" x="71.28" y="379.12" width="104.47" height="24.71"/><rect class="cls-1" x="201.95" y="241.12" width="175.76" height="24.71"/><rect class="cls-1" x="279.47" y="269.65" width="98.23" height="24.71"/><rect class="cls-1" x="189.29" y="127.85" width="162.3" height="24.71"/><rect class="cls-1" x="275.21" y="156.38" width="77.03" height="24.71"/><rect class="cls-1" x="438.15" y="123.34" width="166.1" height="24.71"/><rect class="cls-1" x="438.15" y="151.87" width="95.81" height="24.71"/><rect class="cls-1" x="535.73" y="25.43" width="173.32" height="24.71"/><rect class="cls-1" x="535.73" y="53.97" width="78.54" height="24.71"/><rect class="cls-1" x="621.78" y="190.07" width="173.32" height="24.71"/><rect class="cls-1" x="621.78" y="218.6" width="60.7" height="24.71"/><rect class="cls-1" x="358.37" y="313.31" width="173.32" height="24.71"/><rect class="cls-1" x="358.37" y="341.85" width="65.94" height="24.71"/><rect class="cls-1" x="562.95" y="307.16" width="173.32" height="24.71"/><rect class="cls-1" x="562.95" y="335.7" width="75.01" height="24.71"/><rect class="cls-1" x="483.93" y="470.92" width="173.32" height="24.71"/><rect class="cls-1" x="483.93" y="499.46" width="57.87" height="24.71"/><rect class="cls-1" x="514.66" y="569.7" width="173.32" height="24.71"/><rect class="cls-1" x="514.66" y="598.24" width="95.62" height="24.71"/><rect class="cls-1" x="407.54" y="634.68" width="173.32" height="24.71"/><rect class="cls-1" x="407.54" y="663.21" width="44.96" height="24.71"/><rect class="cls-1" x="547.58" y="711.07" width="173.32" height="24.71"/><rect class="cls-1" x="547.58" y="739.6" width="93.71" height="24.71"/><rect class="cls-1" x="691" y="387.94" width="173.32" height="24.71"/><rect class="cls-1" x="691" y="416.48" width="82.34" height="24.71"/><circle class="cls-2" cx="417.66" cy="148.38" r="5.51"/><circle class="cls-2" cx="545.85" cy="99.06" r="5.51"/><circle class="cls-2" cx="343.64" cy="202.03" r="5.51"/><circle class="cls-2" cx="398.69" cy="269.96" r="5.51"/><circle class="cls-2" cx="367.09" cy="386.43" r="5.51"/><circle class="cls-2" cx="258.66" cy="749.69" r="5.51"/><circle class="cls-2" cx="417.66" cy="707.63" r="5.51"/><circle class="cls-2" cx="494.05" cy="591.4" r="5.51"/><circle class="cls-2" cx="631.68" cy="264.45" r="5.51"/><circle class="cls-2" cx="668.98" cy="412.25" r="5.51"/><circle class="cls-2" cx="573.9" cy="386.43" r="5.51"/><circle class="cls-2" cx="494.05" cy="446.68" r="5.51"/><circle class="cls-2" cx="526.73" cy="735.83" r="5.51"/><circle class="cls-2" cx="324.3" cy="518.34" r="5.51"/><circle class="cls-2" cx="211.65" cy="427.1" r="5.51"/><circle class="cls-2" cx="197.44" cy="375.41" r="5.51"/><path class="cls-2" d="M111.07,794l-1.56-1.76a6.84,6.84,0,0,1-4.44,1.58,7.18,7.18,0,0,1-7.18-7.52c0-4.4,3.08-7.68,7.24-7.68a7.2,7.2,0,0,1,7.18,7.55,7.61,7.61,0,0,1-1.59,4.9l1.63,1.76Zm-1.58-4.27a6.58,6.58,0,0,0,.9-3.48c0-3.41-2.24-5.91-5.28-5.91a5.29,5.29,0,0,0-4.16,2.06,6.21,6.21,0,0,0-1.16,3.81c0,3.43,2.22,5.9,5.25,5.9a4.51,4.51,0,0,0,3.22-1.21l-1.08-1.21,1.25-1.1Z"/><path class="cls-2" d="M116.86,787.6c0,1.87.26,2.82,1,3.52a4,4,0,0,0,2.59,1A3.8,3.8,0,0,0,123,791c.79-.77,1-1.52,1-3.48v-8.69h1.89v8.69c0,2.21-.35,3.46-1.3,4.52a5.4,5.4,0,0,1-4.13,1.73A5.5,5.5,0,0,1,116.2,792c-.9-1-1.19-2.12-1.19-4.41v-8.69h1.85Z"/><path class="cls-2" d="M130.94,785.35h5.78v1.59h-5.78v5h5.78v1.58h-7.63V778.86h7.63v1.59h-5.78Z"/><path class="cls-2" d="M141.52,793.54h-1.85V778.86h4c3.12,0,5,1.61,5,4.27a4,4,0,0,1-2.11,3.7,6.1,6.1,0,0,1-2.71.62l5.7,6.09h-2.35l-5.7-6.16Zm1.85-7.42c2.22,0,3.43-1,3.43-2.86s-1.1-2.81-3.12-2.81h-2.16v5.67Z"/><path class="cls-2" d="M151.77,778.86h3.9c4.42,0,7.08,2.69,7.08,7.11a7.65,7.65,0,0,1-2.31,5.88,7.36,7.36,0,0,1-5.1,1.69h-3.57Zm1.85,13.1h.66c2.49,0,3.54-.27,4.6-1.1a5.88,5.88,0,0,0,2-4.87c0-3.54-1.89-5.56-5.26-5.56h-2Z"/><path class="cls-2" d="M167.39,785.35h5.79v1.59h-5.79v5h5.79v1.58h-7.64V778.86h7.64v1.59h-5.79Z"/><path class="cls-2" d="M178,793.54h-1.85V778.86h1.7l7.83,11v-11h1.85v14.68h-1.63L178,782.32Z"/><path class="cls-2" d="M193,793.54h-1.85V778.86H193v6.76l5.7-6.76h2.22l-6.12,7.26,6.12,7.42h-2.35L193,786.76Z"/><path class="cls-2" d="M204.68,785.35h5.79v1.59h-5.79v5h5.79v1.58h-7.64V778.86h7.64v1.59h-5.79Z"/><path class="cls-2" d="M215.26,793.54h-1.85V778.86h1.7l7.83,11v-11h1.85v14.68h-1.63l-7.9-11.22Z"/><path class="cls-2" d="M231.17,789h-4.56v-1.51h4.56Z"/><path class="cls-2" d="M233,780.71v-1.63h8.14l-5.81,14.46h-1.89l5.19-12.83Z"/><path class="cls-2" d="M246.59,785a3.61,3.61,0,0,1,1.43-.29,4.31,4.31,0,0,1,4.34,4.4,4.75,4.75,0,0,1-4.74,4.73,4.62,4.62,0,0,1-4.64-4.73,5.64,5.64,0,0,1,1.12-3.23l4.21-6.76h2Zm-1.87,4.11a3,3,0,1,0,5.92.07,3,3,0,0,0-5.92-.07Z"/><path class="cls-2" d="M255.61,783.68V782l5-3.26v14.79h-1.74v-12Z"/><path class="cls-2" d="M191.94,812.35h5.72v1.59h-5.72v6.6h-1.85V805.86h7.57v1.59h-5.72Z"/><path class="cls-2" d="M201.4,810.4v1.71a2.89,2.89,0,0,1,.93-1.34,3.14,3.14,0,0,1,1.93-.62h.4v1.7a4.12,4.12,0,0,0-.46,0A2.59,2.59,0,0,0,202,813a3.72,3.72,0,0,0-.6,2.4v5.15h-1.67V810.4Z"/><path class="cls-2" d="M207.32,816a3.16,3.16,0,0,0,.66,1.85,3.3,3.3,0,0,0,2.73,1.38,3.52,3.52,0,0,0,3-1.74l1.47.55a5,5,0,0,1-4.51,2.73,5.32,5.32,0,1,1,5.08-5.43c0,.13,0,.41,0,.66Zm6.69-1.23a3.16,3.16,0,0,0-.57-1.74,3.48,3.48,0,0,0-2.8-1.39,3.24,3.24,0,0,0-2.72,1.41,4.07,4.07,0,0,0-.58,1.72Z"/><path class="cls-2" d="M220.13,807.56a1.06,1.06,0,0,1-1.08,1.05,1.08,1.08,0,0,1,0-2.15A1.07,1.07,0,0,1,220.13,807.56Zm-.25,13h-1.67V810.4h1.67Z"/><path class="cls-2" d="M224.92,820.54h-1.67V805.86h1.67v6.27a4.13,4.13,0,0,1,3.57-2c2.83,0,4.81,2.2,4.81,5.35s-2,5.28-4.73,5.28a4.13,4.13,0,0,1-3.65-2Zm0-5.06c0,2.31,1.32,3.85,3.3,3.85s3.34-1.52,3.34-3.78-1.36-3.9-3.27-3.9S224.9,813.26,224.9,815.48Z"/><path class="cls-2" d="M243.45,810.4v6.49a3.38,3.38,0,0,1-1,2.84,4.55,4.55,0,0,1-5.85,0,3.71,3.71,0,0,1-1-2.81V810.4h1.67v6.44a2.26,2.26,0,0,0,2.27,2.45,2.42,2.42,0,0,0,1.8-.77,2.27,2.27,0,0,0,.44-1.63V810.4Z"/><path class="cls-2" d="M248.2,810.4v1.71a2.81,2.81,0,0,1,.92-1.34,3.17,3.17,0,0,1,1.94-.62h.39v1.7a4,4,0,0,0-.46,0,2.6,2.6,0,0,0-2.2,1.16,3.73,3.73,0,0,0-.59,2.4v5.15h-1.68V810.4Z"/><path class="cls-2" d="M260.8,810.4h1.68v10.21a4.7,4.7,0,0,1-1.35,3.71,5.22,5.22,0,0,1-3.74,1.35,5.73,5.73,0,0,1-4.49-1.85l1.15-1.15a5.13,5.13,0,0,0,1,.88,4.8,4.8,0,0,0,2.37.6,3.69,3.69,0,0,0,2.64-1,3.46,3.46,0,0,0,.77-2.42V818.6a4.2,4.2,0,0,1-3.74,2.18c-2.68,0-4.68-2.26-4.68-5.28a5.83,5.83,0,0,1,1.6-4.16,4.49,4.49,0,0,1,3.21-1.19,4.1,4.1,0,0,1,3.61,2Zm-6.66,5c0,2.18,1.4,3.81,3.32,3.81A3.42,3.42,0,0,0,260,818a4.12,4.12,0,0,0,.73-2.51,3.55,3.55,0,0,0-.79-2.68,3.44,3.44,0,0,0-2.47-1.13C255.52,811.69,254.14,813.23,254.14,815.43Z"/><path class="cls-2" d="M18.83,370.87l-1.56-1.76a6.85,6.85,0,0,1-4.44,1.59,7.44,7.44,0,0,1-5.42-2.47,7.37,7.37,0,0,1-1.76-5.06c0-4.4,3.08-7.68,7.24-7.68A7.2,7.2,0,0,1,20.07,363a7.61,7.61,0,0,1-1.59,4.9l1.63,1.76Zm-1.58-4.27a6.57,6.57,0,0,0,.9-3.47c0-3.41-2.24-5.92-5.28-5.92a5.27,5.27,0,0,0-4.16,2.07,6.18,6.18,0,0,0-1.16,3.8c0,3.43,2.22,5.9,5.25,5.9A4.51,4.51,0,0,0,16,367.77l-1.08-1.21,1.25-1.1Z"/><path class="cls-2" d="M24.62,364.49c0,1.87.26,2.82,1,3.52a4,4,0,0,0,2.59,1,3.8,3.8,0,0,0,2.6-1.08c.79-.77,1-1.52,1-3.47v-8.7h1.89v8.7c0,2.2-.35,3.45-1.3,4.51a5.4,5.4,0,0,1-4.13,1.74A5.51,5.51,0,0,1,24,368.85c-.9-1-1.19-2.12-1.19-4.4v-8.7h1.85Z"/><path class="cls-2" d="M38.7,362.25h5.78v1.58H38.7v5h5.78v1.58H36.85V355.75h7.63v1.59H38.7Z"/><path class="cls-2" d="M49.28,370.43H47.43V355.75h4c3.12,0,5,1.61,5,4.27a4,4,0,0,1-2.11,3.7,6.1,6.1,0,0,1-2.71.62l5.7,6.09H55l-5.7-6.16ZM51.13,363c2.22,0,3.43-1,3.43-2.86s-1.1-2.82-3.12-2.82H49.28V363Z"/><path class="cls-2" d="M59.53,355.75h3.9c4.42,0,7.08,2.69,7.08,7.11a7.65,7.65,0,0,1-2.31,5.88,7.36,7.36,0,0,1-5.1,1.69H59.53Zm1.85,13.1H62c2.49,0,3.54-.27,4.6-1.1a5.88,5.88,0,0,0,2-4.87c0-3.54-1.89-5.56-5.26-5.56h-2Z"/><path class="cls-2" d="M75.15,362.25h5.79v1.58H75.15v5h5.79v1.58H73.3V355.75h7.64v1.59H75.15Z"/><path class="cls-2" d="M85.73,370.43H83.88V355.75h1.7l7.83,11.05V355.75h1.85v14.68H93.63l-7.9-11.22Z"/><path class="cls-2" d="M100.76,370.43H98.91V355.75h1.85v6.76l5.7-6.76h2.22L102.56,363l6.12,7.41h-2.35l-5.57-6.78Z"/><path class="cls-2" d="M112.44,362.25h5.79v1.58h-5.79v5h5.79v1.58h-7.64V355.75h7.64v1.59h-5.79Z"/><path class="cls-2" d="M123,370.43h-1.85V355.75h1.7l7.83,11.05V355.75h1.85v14.68h-1.63L123,359.21Z"/><path class="cls-2" d="M138.93,365.85h-4.56v-1.51h4.56Z"/><path class="cls-2" d="M148.1,368.82v1.61h-8.23l5.11-7.3c1.47-2.14,1.8-2.8,1.8-3.68a2.45,2.45,0,0,0-4.57-.94,3.5,3.5,0,0,0-.27,1.51h-1.65c.09-2.79,1.56-4.33,4.18-4.33,2.4,0,4.07,1.49,4.07,3.63,0,1.23-.44,2.31-1.67,4l-3.94,5.47Z"/><path class="cls-2" d="M159.1,368.82v1.61h-8.23l5.11-7.3c1.47-2.14,1.8-2.8,1.8-3.68a2.45,2.45,0,0,0-4.57-.94,3.5,3.5,0,0,0-.27,1.51h-1.65c.09-2.79,1.56-4.33,4.18-4.33,2.4,0,4.07,1.49,4.07,3.63,0,1.23-.44,2.31-1.67,4l-3.94,5.47Z"/><path class="cls-2" d="M163.37,360.57V358.9l5-3.26v14.79H166.6v-12Z"/><path class="cls-2" d="M76.67,382.75h3.89c4.43,0,7.09,2.69,7.09,7.11a7.65,7.65,0,0,1-2.31,5.88,7.37,7.37,0,0,1-5.11,1.69H76.67Zm1.85,13.1h.66c2.48,0,3.54-.27,4.6-1.1a5.88,5.88,0,0,0,2-4.87c0-3.54-1.9-5.56-5.26-5.56h-2Z"/><path class="cls-2" d="M97.88,387.29v6.49a3.41,3.41,0,0,1-1,2.84,4.32,4.32,0,0,1-2.93,1.05A4.26,4.26,0,0,1,91,396.59a3.71,3.71,0,0,1-1-2.81v-6.49h1.67v6.44a2.25,2.25,0,0,0,2.27,2.45,2.4,2.4,0,0,0,1.8-.77,2.27,2.27,0,0,0,.44-1.63v-6.49Zm-5.11-2.88a1,1,0,1,1-1-1.06A1,1,0,0,1,92.77,384.41Zm4.4,0a1,1,0,1,1-1-1.06A1,1,0,0,1,97.17,384.41Z"/><path class="cls-2" d="M105.64,390.06V390c0-.95-.77-1.54-1.93-1.54s-1.83.57-1.83,1.45.44,1.21,2.27,1.72a5.18,5.18,0,0,1,2.46,1.16,2.84,2.84,0,0,1,.82,2c0,1.76-1.46,2.95-3.61,2.95-2.31,0-3.61-1.08-3.79-3.12h1.65a1.88,1.88,0,0,0,2.14,1.76c1.14,0,1.89-.6,1.89-1.5s-.57-1.32-2.31-1.76c-2.2-.59-3.19-1.52-3.19-3.06,0-1.76,1.43-2.94,3.56-2.94s3.46,1.1,3.55,3Z"/><path class="cls-2" d="M114.69,390.06V390c0-.95-.77-1.54-1.94-1.54s-1.83.57-1.83,1.45.44,1.21,2.27,1.72a5.18,5.18,0,0,1,2.46,1.16,2.84,2.84,0,0,1,.82,2c0,1.76-1.45,2.95-3.61,2.95-2.31,0-3.61-1.08-3.79-3.12h1.66a1.87,1.87,0,0,0,2.13,1.76c1.14,0,1.89-.6,1.89-1.5s-.57-1.32-2.31-1.76c-2.2-.59-3.19-1.52-3.19-3.06,0-1.76,1.43-2.94,3.57-2.94s3.45,1.1,3.54,3Z"/><path class="cls-2" d="M120,392.9a3.16,3.16,0,0,0,.66,1.85,3.3,3.3,0,0,0,2.73,1.38,3.49,3.49,0,0,0,3-1.74l1.48.55a5,5,0,0,1-4.51,2.73,5.31,5.31,0,1,1,5.08-5.43c0,.13,0,.42,0,.66Zm6.69-1.23a3.16,3.16,0,0,0-.57-1.74,3.5,3.5,0,0,0-2.8-1.39A3.27,3.27,0,0,0,120.6,390a4.08,4.08,0,0,0-.57,1.72Z"/><path class="cls-2" d="M130.77,397.43V382.75h1.67v14.68Z"/><path class="cls-2" d="M143.4,382.75h1.67v14.68H143.4v-1.74a4.15,4.15,0,0,1-3.63,2c-2.8,0-4.78-2.18-4.78-5.26s2-5.36,4.78-5.36a4.36,4.36,0,0,1,3.63,1.78Zm-6.65,9.69c0,2.22,1.34,3.78,3.26,3.78a3.52,3.52,0,0,0,3.39-3.83c0-2.29-1.35-3.85-3.28-3.85S136.75,390.13,136.75,392.44Z"/><path class="cls-2" d="M157.94,392.39a5.18,5.18,0,0,1-5.19,5.28,5.31,5.31,0,1,1,5.19-5.28Zm-8.61,0a3.43,3.43,0,0,0,3.46,3.76,3.47,3.47,0,0,0,3.43-3.76c0-2.27-1.36-3.78-3.41-3.78S149.33,390.1,149.33,392.37Z"/><path class="cls-2" d="M162.16,387.29V389a3,3,0,0,1,.92-1.34,3.25,3.25,0,0,1,1.94-.61h.4v1.69a4.2,4.2,0,0,0-.47,0,2.62,2.62,0,0,0-2.2,1.16,3.74,3.74,0,0,0-.59,2.4v5.15h-1.67V387.29Z"/><path class="cls-2" d="M169.75,397.43h-1.67v-8.67h-1.39v-1.47h1.39v-1.37c0-2,1-3.19,2.79-3.19a4.21,4.21,0,0,1,.46,0v1.5c-1.21.13-1.54.49-1.58,1.67v1.37h1.58v1.47h-1.58Z"/><path class="cls-2" d="M566.43,731.3l-1.56-1.76a6.85,6.85,0,0,1-4.44,1.59,7.46,7.46,0,0,1-5.42-2.47,7.35,7.35,0,0,1-1.76-5.06c0-4.4,3.09-7.67,7.24-7.67a7.19,7.19,0,0,1,7.18,7.54,7.66,7.66,0,0,1-1.59,4.91l1.63,1.76ZM564.85,727a6.63,6.63,0,0,0,.9-3.48c0-3.41-2.24-5.92-5.28-5.92a5.28,5.28,0,0,0-4.16,2.07,6.21,6.21,0,0,0-1.16,3.81c0,3.43,2.22,5.89,5.26,5.89a4.5,4.5,0,0,0,3.21-1.21L562.54,727l1.25-1.1Z"/><path class="cls-2" d="M572.22,724.92c0,1.87.26,2.82,1,3.52a3.94,3.94,0,0,0,2.59,1,3.79,3.79,0,0,0,2.6-1.07c.79-.77,1-1.52,1-3.48v-8.69h1.89v8.69c0,2.2-.35,3.45-1.3,4.51a5.4,5.4,0,0,1-4.13,1.74,5.48,5.48,0,0,1-4.27-1.85c-.9-1-1.19-2.11-1.19-4.4v-8.69h1.85Z"/><path class="cls-2" d="M586.3,722.68h5.79v1.58H586.3v5h5.79v1.58h-7.64V716.19h7.64v1.58H586.3Z"/><path class="cls-2" d="M596.88,730.86H595V716.19h4c3.12,0,5,1.61,5,4.27a4,4,0,0,1-2.11,3.69,6,6,0,0,1-2.71.62l5.7,6.09h-2.35l-5.7-6.16Zm1.85-7.41c2.22,0,3.43-1,3.43-2.86s-1.1-2.82-3.12-2.82h-2.16v5.68Z"/><path class="cls-2" d="M607.13,716.19H611c4.42,0,7.08,2.68,7.08,7.11a7.63,7.63,0,0,1-2.31,5.87,7.34,7.34,0,0,1-5.1,1.69h-3.57ZM609,729.28h.66c2.49,0,3.54-.26,4.6-1.1a5.86,5.86,0,0,0,2-4.86c0-3.54-1.89-5.57-5.26-5.57h-2Z"/><path class="cls-2" d="M622.75,722.68h5.79v1.58h-5.79v5h5.79v1.58H620.9V716.19h7.64v1.58h-5.79Z"/><path class="cls-2" d="M633.33,730.86h-1.84V716.19h1.69l7.83,11v-11h1.85v14.67h-1.63l-7.9-11.22Z"/><path class="cls-2" d="M648.36,730.86h-1.85V716.19h1.85v6.75l5.7-6.75h2.22l-6.12,7.26,6.12,7.41h-2.35l-5.57-6.77Z"/><path class="cls-2" d="M660,722.68h5.79v1.58H660v5h5.79v1.58h-7.64V716.19h7.64v1.58H660Z"/><path class="cls-2" d="M670.62,730.86h-1.84V716.19h1.69l7.83,11v-11h1.85v14.67h-1.63l-7.9-11.22Z"/><path class="cls-2" d="M686.53,726.29H682v-1.52h4.56Z"/><path class="cls-2" d="M696.39,726.44a4.6,4.6,0,0,1-1,3.43,4.42,4.42,0,0,1-3.32,1.24,4.47,4.47,0,0,1-3.39-1.28c-.77-.81-1-1.65-1-3.87v-4.84c0-1.92.22-2.82.88-3.61a4.33,4.33,0,0,1,3.44-1.37,4.75,4.75,0,0,1,3.25,1.1c.84.77,1.15,1.66,1.15,3.37Zm-7-.37c0,1.69.07,2,.55,2.55a2.81,2.81,0,0,0,2.09.86,2.67,2.67,0,0,0,2.16-1,3.68,3.68,0,0,0,.46-2.18v-5.61a2.7,2.7,0,0,0-.75-2.24,2.74,2.74,0,0,0-1.87-.68,2.48,2.48,0,0,0-2.18,1.05,3.59,3.59,0,0,0-.46,2.31Z"/><path class="cls-2" d="M706.48,723.85a3.84,3.84,0,0,1,1.1,2.83,4.35,4.35,0,0,1-4.59,4.45,4.35,4.35,0,0,1-3.44-7.24,3.54,3.54,0,0,1,1.72-1,2.76,2.76,0,0,1-1.5-1,3.39,3.39,0,0,1-.75-2.15,3.75,3.75,0,0,1,4.05-3.64,3.69,3.69,0,0,1,4,3.61,3.44,3.44,0,0,1-.82,2.25,2.87,2.87,0,0,1-1.45.9A3.29,3.29,0,0,1,706.48,723.85Zm-6.29,2.81a2.82,2.82,0,1,0,2.86-2.84A2.83,2.83,0,0,0,700.19,726.66Zm.51-6.86A2.27,2.27,0,0,0,703,722a2.37,2.37,0,0,0,2.38-2.22,2.29,2.29,0,0,0-2.34-2.13A2.16,2.16,0,0,0,700.7,719.8Z"/><path class="cls-2" d="M715.13,725a3.59,3.59,0,0,1-1.41.29,4.36,4.36,0,0,1-4.38-4.45,4.68,4.68,0,0,1,4.76-4.69,4.53,4.53,0,0,1,4.62,4.63,5.7,5.7,0,0,1-1,3.19l-4.22,6.9h-2.05Zm-4-4.22a3,3,0,1,0,3-3A3,3,0,0,0,711.08,720.77Z"/><path class="cls-2" d="M555.92,757.86h-1.85V743.19h1.82l5.44,11,5.5-11h1.8v14.67h-1.84V747.13L561.33,758l-5.41-10.91Z"/><path class="cls-2" d="M579.72,747.72v6.49a3.35,3.35,0,0,1-1,2.84,4.31,4.31,0,0,1-2.93,1.06,4.27,4.27,0,0,1-2.92-1.08,3.7,3.7,0,0,1-1-2.82v-6.49h1.68v6.45a2.24,2.24,0,0,0,2.26,2.44,2.42,2.42,0,0,0,1.81-.77,2.26,2.26,0,0,0,.44-1.63v-6.49Zm-5.1-2.88a1,1,0,1,1-1-1.06A1,1,0,0,1,574.62,744.84Zm4.4,0a1,1,0,1,1-1-1.06A1,1,0,0,1,579,744.84Z"/><path class="cls-2" d="M584.47,747.72v1.43a3.46,3.46,0,0,1,3-1.67,3.51,3.51,0,0,1,2.35.84,3.27,3.27,0,0,1,.86,2.7v6.84H589V751.4a2.72,2.72,0,0,0-.38-1.74,1.94,1.94,0,0,0-1.58-.68,2.53,2.53,0,0,0-1.94.85,2.43,2.43,0,0,0-.66,1.85v6.18H582.8V747.72Z"/><path class="cls-2" d="M601.9,756.61a5.23,5.23,0,0,1-3.74,1.5,5.32,5.32,0,0,1,.08-10.63,5,5,0,0,1,3.7,1.52l-1.08,1.08a3.69,3.69,0,0,0-2.57-1.06,3.42,3.42,0,0,0-3.39,3.74c0,2.24,1.39,3.81,3.37,3.81a3.53,3.53,0,0,0,2.59-1.1Z"/><path class="cls-2" d="M605.48,749.13a3.75,3.75,0,0,1,3.06-1.65,3.42,3.42,0,0,1,2.36.92,3.53,3.53,0,0,1,.79,2.64v6.82H610v-6.73c0-1.38-.68-2.15-1.89-2.15a2.56,2.56,0,0,0-2,.9,2.67,2.67,0,0,0-.66,2v5.94h-1.67V743.19h1.67Z"/><path class="cls-2" d="M616,753.33a3.23,3.23,0,0,0,.66,1.85,3.31,3.31,0,0,0,2.73,1.39,3.53,3.53,0,0,0,3-1.74l1.47.55a5,5,0,0,1-4.51,2.73,5.32,5.32,0,1,1,5.09-5.44,5.74,5.74,0,0,1,0,.66Zm6.69-1.23a3.13,3.13,0,0,0-.57-1.74,3.47,3.47,0,0,0-2.79-1.38,3.24,3.24,0,0,0-2.73,1.4,4,4,0,0,0-.57,1.72Z"/><path class="cls-2" d="M628.52,747.72v1.43a3.46,3.46,0,0,1,3-1.67,3.51,3.51,0,0,1,2.35.84,3.27,3.27,0,0,1,.86,2.7v6.84h-1.67V751.4a2.8,2.8,0,0,0-.37-1.74,2,2,0,0,0-1.59-.68,2.5,2.5,0,0,0-1.93.85,2.39,2.39,0,0,0-.66,1.85v6.18h-1.68V747.72Z"/><path class="cls-2" d="M533.75,590l-1.56-1.76a6.85,6.85,0,0,1-4.45,1.59,7.44,7.44,0,0,1-5.41-2.47,7.32,7.32,0,0,1-1.76-5.06c0-4.4,3.08-7.68,7.24-7.68a7.2,7.2,0,0,1,7.17,7.55,7.65,7.65,0,0,1-1.58,4.91l1.63,1.76Zm-1.58-4.27a6.66,6.66,0,0,0,.9-3.47c0-3.41-2.25-5.92-5.28-5.92a5.27,5.27,0,0,0-4.16,2.07,6.21,6.21,0,0,0-1.17,3.8c0,3.44,2.22,5.9,5.26,5.9a4.47,4.47,0,0,0,3.21-1.21l-1.07-1.21,1.25-1.1Z"/><path class="cls-2" d="M539.53,583.62c0,1.87.27,2.82,1,3.52a4,4,0,0,0,2.6,1,3.73,3.73,0,0,0,2.59-1.08c.8-.77,1-1.51,1-3.47v-8.69h1.89v8.69c0,2.2-.35,3.45-1.3,4.51a5.41,5.41,0,0,1-4.14,1.74,5.49,5.49,0,0,1-4.27-1.85c-.9-1-1.18-2.11-1.18-4.4v-8.69h1.84Z"/><path class="cls-2" d="M553.61,581.38h5.79V583h-5.79v5h5.79v1.58h-7.63V574.89h7.63v1.58h-5.79Z"/><path class="cls-2" d="M564.2,589.56h-1.85V574.89h4c3.13,0,5,1.6,5,4.27a4,4,0,0,1-2.11,3.69,6,6,0,0,1-2.71.62l5.7,6.09h-2.36l-5.69-6.16Zm1.84-7.41c2.23,0,3.44-1,3.44-2.86s-1.1-2.82-3.13-2.82H564.2v5.68Z"/><path class="cls-2" d="M574.45,574.89h3.89c4.42,0,7.09,2.68,7.09,7.1a7.67,7.67,0,0,1-2.31,5.88,7.37,7.37,0,0,1-5.11,1.69h-3.56ZM576.3,588H577c2.48,0,3.54-.26,4.59-1.1a5.87,5.87,0,0,0,2-4.86c0-3.55-1.89-5.57-5.25-5.57h-2Z"/><path class="cls-2" d="M590.07,581.38h5.78V583h-5.78v5h5.78v1.58h-7.63V574.89h7.63v1.58h-5.78Z"/><path class="cls-2" d="M600.65,589.56H598.8V574.89h1.7l7.83,11v-11h1.85v14.67h-1.63l-7.9-11.22Z"/><path class="cls-2" d="M615.67,589.56h-1.84V574.89h1.84v6.75l5.7-6.75h2.23l-6.12,7.26,6.12,7.41h-2.36l-5.57-6.77Z"/><path class="cls-2" d="M627.36,581.38h5.78V583h-5.78v5h5.78v1.58h-7.63V574.89h7.63v1.58h-5.78Z"/><path class="cls-2" d="M637.94,589.56h-1.85V574.89h1.69l7.84,11v-11h1.85v14.67h-1.63l-7.9-11.22Z"/><path class="cls-2" d="M653.84,585h-4.55v-1.52h4.55Z"/><path class="cls-2" d="M660.44,583.69a3.51,3.51,0,0,1-1.4.28,4.34,4.34,0,0,1-4.38-4.44,4.68,4.68,0,0,1,4.75-4.69,4.52,4.52,0,0,1,4.62,4.62,5.66,5.66,0,0,1-1,3.19l-4.23,6.91h-2Zm-4-4.23a2.95,2.95,0,1,0,3-3A3,3,0,0,0,656.4,579.46Z"/><path class="cls-2" d="M667.29,579.71V578l5-3.25v14.78h-1.74v-12Z"/><path class="cls-2" d="M678.29,579.71V578l5-3.25v14.78h-1.74v-12Z"/><path class="cls-2" d="M523.23,616.56h-1.85V601.89h1.7l7.83,11v-11h1.85v14.67h-1.63l-7.9-11.22Z"/><path class="cls-2" d="M543.89,606.42v6.49a3.35,3.35,0,0,1-1,2.84,4.31,4.31,0,0,1-2.93,1,4.26,4.26,0,0,1-2.92-1.07,3.7,3.7,0,0,1-1-2.82v-6.49h1.68v6.45a2.24,2.24,0,0,0,2.26,2.44,2.42,2.42,0,0,0,1.81-.77,2.27,2.27,0,0,0,.44-1.63v-6.49Zm-5.1-2.88a1,1,0,1,1-1-1.06A1,1,0,0,1,538.79,603.54Zm4.4,0a1,1,0,1,1-1-1.06A1,1,0,0,1,543.19,603.54Z"/><path class="cls-2" d="M548.64,606.42v1.72a2.88,2.88,0,0,1,.93-1.35,3.2,3.2,0,0,1,1.93-.61h.4v1.69a4.12,4.12,0,0,0-.46,0,2.58,2.58,0,0,0-2.2,1.17,3.69,3.69,0,0,0-.6,2.39v5.15H547V606.42Z"/><path class="cls-2" d="M555.46,606.42v1.43a3.46,3.46,0,0,1,3-1.67,3.56,3.56,0,0,1,2.35.83,3.3,3.3,0,0,1,.86,2.71v6.84H560v-6.47a2.7,2.7,0,0,0-.38-1.73,2,2,0,0,0-1.58-.69,2.54,2.54,0,0,0-1.94.86,2.41,2.41,0,0,0-.66,1.85v6.18h-1.67V606.42Z"/><path class="cls-2" d="M566.66,616.56H565V601.89h1.67v6.27a4.11,4.11,0,0,1,3.56-2c2.84,0,4.82,2.2,4.82,5.34s-2,5.28-4.73,5.28a4.13,4.13,0,0,1-3.65-2Zm0-5.06c0,2.31,1.32,3.85,3.3,3.85s3.34-1.52,3.34-3.78-1.36-3.9-3.28-3.9S566.64,609.28,566.64,611.5Z"/><path class="cls-2" d="M578.56,612a3.16,3.16,0,0,0,.66,1.85,3.3,3.3,0,0,0,2.73,1.38,3.54,3.54,0,0,0,3-1.73l1.47.55A5,5,0,0,1,582,616.8a5.31,5.31,0,1,1,5.08-5.43c0,.13,0,.42,0,.66Zm6.69-1.23a3.21,3.21,0,0,0-.57-1.74,3.48,3.48,0,0,0-2.8-1.39,3.24,3.24,0,0,0-2.72,1.41,4.12,4.12,0,0,0-.58,1.72Z"/><path class="cls-2" d="M591.12,606.42v1.72a2.88,2.88,0,0,1,.93-1.35,3.2,3.2,0,0,1,1.93-.61h.4v1.69a4.12,4.12,0,0,0-.46,0,2.59,2.59,0,0,0-2.2,1.17,3.69,3.69,0,0,0-.6,2.39v5.15h-1.67V606.42Z"/><path class="cls-2" d="M603.73,606.42h1.67v10.21a4.75,4.75,0,0,1-1.34,3.72,5.22,5.22,0,0,1-3.74,1.34,5.73,5.73,0,0,1-4.49-1.85L597,618.7a6.46,6.46,0,0,0,1,.88,5,5,0,0,0,2.38.59,3.65,3.65,0,0,0,2.64-1,3.45,3.45,0,0,0,.77-2.42v-2.13A4.22,4.22,0,0,1,600,616.8c-2.68,0-4.69-2.26-4.69-5.28a5.81,5.81,0,0,1,1.61-4.15,4.41,4.41,0,0,1,3.21-1.19,4.09,4.09,0,0,1,3.61,2Zm-6.67,5c0,2.18,1.41,3.8,3.33,3.8A3.44,3.44,0,0,0,603,614a4.07,4.07,0,0,0,.73-2.51,3.51,3.51,0,0,0-.8-2.68,3.35,3.35,0,0,0-5.83,2.62Z"/><path class="cls-2" d="M426.34,655.32l-1.56-1.76a6.86,6.86,0,0,1-4.45,1.58,7.43,7.43,0,0,1-5.41-2.46,7.32,7.32,0,0,1-1.76-5.06c0-4.4,3.08-7.68,7.24-7.68a7.19,7.19,0,0,1,7.17,7.55,7.6,7.6,0,0,1-1.58,4.9l1.63,1.76Zm-1.58-4.27a6.67,6.67,0,0,0,.9-3.48c0-3.41-2.25-5.91-5.28-5.91a5.29,5.29,0,0,0-4.16,2.06,6.22,6.22,0,0,0-1.17,3.81c0,3.43,2.22,5.9,5.26,5.9a4.47,4.47,0,0,0,3.21-1.21L422.44,651l1.26-1.1Z"/><path class="cls-2" d="M432.12,648.94c0,1.87.27,2.82,1,3.52a4,4,0,0,0,2.6,1,3.78,3.78,0,0,0,2.59-1.08c.8-.77,1-1.52,1-3.48V640.2h1.9v8.69c0,2.2-.36,3.46-1.3,4.52a5.42,5.42,0,0,1-4.14,1.73,5.52,5.52,0,0,1-4.27-1.84c-.9-1-1.18-2.12-1.18-4.41V640.2h1.84Z"/><path class="cls-2" d="M446.2,646.69H452v1.59H446.2v5H452v1.58h-7.63V640.2H452v1.59H446.2Z"/><path class="cls-2" d="M456.78,654.88h-1.84V640.2h4c3.13,0,5,1.61,5,4.27a4,4,0,0,1-2.11,3.7,6.17,6.17,0,0,1-2.71.62l5.7,6.09h-2.36l-5.7-6.16Zm1.85-7.41c2.23,0,3.44-1,3.44-2.87s-1.1-2.81-3.13-2.81h-2.16v5.68Z"/><path class="cls-2" d="M467,640.2h3.89c4.42,0,7.09,2.69,7.09,7.11a7.69,7.69,0,0,1-2.31,5.88,7.37,7.37,0,0,1-5.11,1.69H467Zm1.84,13.1h.67c2.48,0,3.54-.27,4.59-1.1a5.88,5.88,0,0,0,2-4.87c0-3.54-1.89-5.56-5.25-5.56h-2Z"/><path class="cls-2" d="M482.66,646.69h5.78v1.59h-5.78v5h5.78v1.58h-7.63V640.2h7.63v1.59h-5.78Z"/><path class="cls-2" d="M493.24,654.88h-1.85V640.2h1.69l7.84,11v-11h1.85v14.68h-1.63l-7.9-11.22Z"/><path class="cls-2" d="M508.26,654.88h-1.84V640.2h1.84V647l5.7-6.76h2.23l-6.12,7.27,6.12,7.41h-2.36l-5.57-6.78Z"/><path class="cls-2" d="M520,646.69h5.78v1.59H520v5h5.78v1.58H518.1V640.2h7.63v1.59H520Z"/><path class="cls-2" d="M530.53,654.88h-1.85V640.2h1.69l7.84,11v-11h1.85v14.68h-1.63l-7.9-11.22Z"/><path class="cls-2" d="M546.43,650.3h-4.55v-1.51h4.55Z"/><path class="cls-2" d="M548.28,642.05v-1.63h8.14l-5.81,14.46h-1.89l5.19-12.83Z"/><path class="cls-2" d="M559,642v-1.59h8.31L563,645.9a4.22,4.22,0,0,1,4.36,4.43,4.7,4.7,0,0,1-4.86,4.79,4.31,4.31,0,0,1-4.47-3.52l1.58-.28a2.8,2.8,0,0,0,2.8,2.2,3.1,3.1,0,0,0,3.19-3.06,3,3,0,0,0-3.24-3,3.11,3.11,0,0,0-1.76.5l-.72-.64,4.24-5.32Z"/><path class="cls-2" d="M570.88,645v-1.67l5-3.26v14.79h-1.74v-12Z"/><path class="cls-2" d="M415.56,675.94c0,1.87.26,2.82,1,3.52a4,4,0,0,0,2.59,1,3.8,3.8,0,0,0,2.6-1.08c.79-.77,1-1.52,1-3.48V667.2h1.89v8.69c0,2.2-.35,3.46-1.3,4.52a5.4,5.4,0,0,1-4.13,1.73,5.5,5.5,0,0,1-4.27-1.84c-.9-1-1.19-2.12-1.19-4.41V667.2h1.85Z"/><path class="cls-2" d="M427.81,681.88V667.2h1.67v14.68Z"/><path class="cls-2" d="M434.52,671.74v1.4a3.18,3.18,0,0,1,2.88-1.65,2.62,2.62,0,0,1,2.73,1.85,3.32,3.32,0,0,1,3.21-1.85,3.07,3.07,0,0,1,2.58,1.08c.48.64.61,1.21.61,2.82v6.49h-1.67v-6.09c0-1.24,0-1.52-.28-1.94a2,2,0,0,0-1.76-.86c-1.48,0-2.29,1-2.29,2.8v6.09h-1.67v-6.07a3.85,3.85,0,0,0-.33-1.94,1.76,1.76,0,0,0-1.65-.88c-1.48,0-2.36,1.06-2.36,2.82v6.07h-1.67V671.74Z"/><path class="cls-2" d="M187.72,562.62l-1.56-1.76a6.87,6.87,0,0,1-4.45,1.59A7.42,7.42,0,0,1,176.3,560a7.3,7.3,0,0,1-1.76-5.06c0-4.4,3.08-7.68,7.24-7.68a7.2,7.2,0,0,1,7.17,7.55,7.65,7.65,0,0,1-1.58,4.91l1.62,1.76Zm-1.59-4.26a6.64,6.64,0,0,0,.91-3.48c0-3.41-2.25-5.92-5.29-5.92A5.26,5.26,0,0,0,177.6,551a6.22,6.22,0,0,0-1.17,3.81c0,3.43,2.22,5.89,5.26,5.89a4.47,4.47,0,0,0,3.21-1.21l-1.08-1.21,1.26-1.1Z"/><path class="cls-2" d="M193.5,556.24c0,1.87.27,2.82,1,3.52a4,4,0,0,0,2.6,1,3.79,3.79,0,0,0,2.59-1.07c.79-.77,1-1.52,1-3.48v-8.69h1.9v8.69c0,2.2-.36,3.45-1.3,4.51a5.82,5.82,0,0,1-8.41-.11c-.9-1-1.19-2.11-1.19-4.4v-8.69h1.85Z"/><path class="cls-2" d="M207.58,554h5.79v1.58h-5.79v5h5.79v1.58h-7.64V547.51h7.64v1.58h-5.79Z"/><path class="cls-2" d="M218.16,562.18h-1.84V547.51h4c3.12,0,5,1.6,5,4.27a4,4,0,0,1-2.12,3.69,6,6,0,0,1-2.7.62l5.7,6.09h-2.36l-5.7-6.16Zm1.85-7.41c2.22,0,3.43-1,3.43-2.86s-1.1-2.82-3.12-2.82h-2.16v5.68Z"/><path class="cls-2" d="M228.42,547.51h3.89c4.42,0,7.08,2.68,7.08,7.11a7.63,7.63,0,0,1-2.31,5.87,7.34,7.34,0,0,1-5.1,1.69h-3.56Zm1.84,13.09h.66c2.49,0,3.55-.26,4.6-1.1a5.86,5.86,0,0,0,2-4.86c0-3.55-1.89-5.57-5.26-5.57h-2Z"/><path class="cls-2" d="M244,554h5.78v1.58H244v5h5.78v1.58h-7.63V547.51h7.63v1.58H244Z"/><path class="cls-2" d="M254.62,562.18h-1.85V547.51h1.69l7.84,11v-11h1.84v14.67h-1.62L254.62,551Z"/><path class="cls-2" d="M269.64,562.18h-1.85V547.51h1.85v6.75l5.7-6.75h2.22l-6.11,7.26,6.11,7.41h-2.35l-5.57-6.77Z"/><path class="cls-2" d="M281.32,554h5.79v1.58h-5.79v5h5.79v1.58h-7.63V547.51h7.63v1.58h-5.79Z"/><path class="cls-2" d="M291.91,562.18h-1.85V547.51h1.69l7.84,11v-11h1.84v14.67h-1.62L291.91,551Z"/><path class="cls-2" d="M307.81,557.61h-4.55v-1.52h4.55Z"/><path class="cls-2" d="M312.23,553.6a3.62,3.62,0,0,1,1.43-.28,4.3,4.3,0,0,1,4.34,4.4,4.76,4.76,0,0,1-4.73,4.73,4.62,4.62,0,0,1-4.64-4.73,5.61,5.61,0,0,1,1.12-3.24l4.2-6.75H316Zm-1.87,4.12a3,3,0,1,0,5.92.06,3,3,0,0,0-5.92-.06Z"/><path class="cls-2" d="M325.41,556.31a3.55,3.55,0,0,1-1.41.29,4.35,4.35,0,0,1-4.37-4.45,4.68,4.68,0,0,1,4.75-4.69,4.53,4.53,0,0,1,4.62,4.62,5.77,5.77,0,0,1-1,3.2l-4.23,6.9h-2Zm-4.05-4.23a3,3,0,1,0,3-3A3,3,0,0,0,321.36,552.08Z"/><path class="cls-2" d="M253.52,581h5.72v1.58h-5.72v6.6h-1.85V574.51h7.57v1.58h-5.72Z"/><path class="cls-2" d="M263,579v1.72a2.94,2.94,0,0,1,.92-1.35,3.23,3.23,0,0,1,1.94-.61h.39v1.69a4,4,0,0,0-.46,0,2.61,2.61,0,0,0-2.2,1.17A3.73,3.73,0,0,0,263,584v5.14h-1.67V579Z"/><path class="cls-2" d="M275.61,579h1.67v10.14h-1.67v-1.95a4.23,4.23,0,0,1-3.7,2.2c-2.79,0-4.77-2.2-4.77-5.28s2-5.35,4.81-5.35a4.25,4.25,0,0,1,3.66,1.91Zm-5.88,2.47a4.58,4.58,0,0,0-.83,2.68c0,2.16,1.4,3.78,3.25,3.78a3.75,3.75,0,0,0,3.48-4,3.41,3.41,0,0,0-3.43-3.71A2.77,2.77,0,0,0,269.73,581.51Z"/><path class="cls-2" d="M282.32,579v1.43a3.46,3.46,0,0,1,3-1.67,3.54,3.54,0,0,1,2.36.84,3.3,3.3,0,0,1,.85,2.7v6.84h-1.67v-6.46a2.8,2.8,0,0,0-.37-1.74,2,2,0,0,0-1.59-.68,2.5,2.5,0,0,0-1.93.85,2.39,2.39,0,0,0-.66,1.85v6.18h-1.68V579Z"/><path class="cls-2" d="M293.51,589.18h-1.67V574.51h1.67v9l4.05-4.45h2.11l-4.53,5,4.51,5.19h-2.09l-4.05-4.53Z"/><path class="cls-2" d="M303.94,589.18h-1.67v-8.67h-1.39V579h1.39v-1.36c0-2,1-3.19,2.79-3.19a4.47,4.47,0,0,1,.47,0V576c-1.21.14-1.54.49-1.59,1.68V579h1.59v1.47h-1.59Z"/><path class="cls-2" d="M315.25,579v6.49a3.35,3.35,0,0,1-1,2.84,4.55,4.55,0,0,1-5.86,0,3.73,3.73,0,0,1-1-2.82V579h1.68v6.45a2.25,2.25,0,0,0,2.26,2.44,2.42,2.42,0,0,0,1.81-.77,2.26,2.26,0,0,0,.44-1.63V579Z"/><path class="cls-2" d="M320,579v1.72a2.94,2.94,0,0,1,.92-1.35,3.23,3.23,0,0,1,1.94-.61h.4v1.69a4.29,4.29,0,0,0-.47,0,2.61,2.61,0,0,0-2.2,1.17A3.73,3.73,0,0,0,320,584v5.14h-1.67V579Z"/><path class="cls-2" d="M327.57,587.12c0,.5.15.61.77.61h.77v1.45h-1.56c-1.19,0-1.65-.46-1.65-1.58v-7.09h-1.41V579h1.41v-3.19h1.67V579h1.54v1.47h-1.54Z"/><path class="cls-2" d="M64.07,471.39l-1.57-1.76a6.84,6.84,0,0,1-4.44,1.58,7.18,7.18,0,0,1-7.17-7.53c0-4.4,3.08-7.67,7.24-7.67a7.19,7.19,0,0,1,7.17,7.54,7.64,7.64,0,0,1-1.59,4.91l1.63,1.76Zm-1.59-4.27a6.63,6.63,0,0,0,.9-3.48c0-3.41-2.24-5.92-5.28-5.92A5.26,5.26,0,0,0,54,459.79a6.22,6.22,0,0,0-1.17,3.81c0,3.43,2.22,5.89,5.26,5.89a4.49,4.49,0,0,0,3.21-1.21l-1.08-1.21,1.26-1.1Z"/><path class="cls-2" d="M69.85,465c0,1.87.26,2.82,1,3.53a4,4,0,0,0,2.6,1A3.8,3.8,0,0,0,76,468.44c.79-.77,1-1.52,1-3.48v-8.69h1.89V465c0,2.2-.35,3.46-1.29,4.51a5.82,5.82,0,0,1-8.41-.11c-.9-1-1.19-2.11-1.19-4.4v-8.69h1.85Z"/><path class="cls-2" d="M83.93,462.76h5.79v1.58H83.93v5h5.79V471H82.08V456.27h7.64v1.58H83.93Z"/><path class="cls-2" d="M94.51,471H92.66V456.27h4c3.12,0,5,1.61,5,4.27a4,4,0,0,1-2.12,3.69,6,6,0,0,1-2.7.62l5.7,6.1h-2.36l-5.7-6.17Zm1.85-7.42c2.22,0,3.43-1,3.43-2.86s-1.1-2.82-3.12-2.82H94.51v5.68Z"/><path class="cls-2" d="M104.76,456.27h3.9c4.42,0,7.08,2.68,7.08,7.11a7.63,7.63,0,0,1-2.31,5.87,7.3,7.3,0,0,1-5.1,1.7h-3.57Zm1.85,13.09h.66c2.49,0,3.55-.26,4.6-1.1a5.86,5.86,0,0,0,2-4.86c0-3.54-1.89-5.57-5.26-5.57h-2Z"/><path class="cls-2" d="M120.38,462.76h5.79v1.58h-5.79v5h5.79V471h-7.63V456.27h7.63v1.58h-5.79Z"/><path class="cls-2" d="M131,471h-1.85V456.27h1.69l7.84,11.05V456.27h1.84V471h-1.62L131,459.72Z"/><path class="cls-2" d="M146,471h-1.85V456.27H146V463l5.7-6.75h2.22l-6.11,7.26,6.11,7.42h-2.35L146,464.17Z"/><path class="cls-2" d="M157.67,462.76h5.79v1.58h-5.79v5h5.79V471h-7.63V456.27h7.63v1.58h-5.79Z"/><path class="cls-2" d="M168.26,471h-1.85V456.27h1.69l7.83,11.05V456.27h1.85V471h-1.63l-7.89-11.23Z"/><path class="cls-2" d="M184.16,466.37h-4.55v-1.52h4.55Z"/><path class="cls-2" d="M193.34,469.34V471h-8.23l5.1-7.31c1.48-2.13,1.81-2.79,1.81-3.67a2.23,2.23,0,0,0-2.45-2.18,2.2,2.2,0,0,0-2.13,1.23,3.61,3.61,0,0,0-.26,1.52h-1.65c.08-2.8,1.56-4.34,4.18-4.34,2.39,0,4.07,1.5,4.07,3.63,0,1.24-.44,2.31-1.68,4l-3.93,5.48Z"/><path class="cls-2" d="M204.34,469.34V471h-8.23l5.1-7.31c1.48-2.13,1.81-2.79,1.81-3.67a2.23,2.23,0,0,0-2.45-2.18,2.2,2.2,0,0,0-2.13,1.23,3.61,3.61,0,0,0-.26,1.52h-1.65c.08-2.8,1.56-4.34,4.18-4.34,2.39,0,4.07,1.5,4.07,3.63,0,1.24-.44,2.31-1.68,4l-3.93,5.48Z"/><path class="cls-2" d="M208.6,461.09v-1.67l5-3.26V471h-1.74v-12Z"/><path class="cls-2" d="M181.46,498h-1.85V483.27h1.85V490l5.69-6.75h2.23l-6.12,7.26,6.12,7.42H187l-5.56-6.78Z"/><path class="cls-2" d="M200.05,492.91a5.17,5.17,0,0,1-5.2,5.28,5.32,5.32,0,1,1,5.2-5.28Zm-8.61,0a3.43,3.43,0,0,0,3.46,3.76,3.47,3.47,0,0,0,3.43-3.76c0-2.27-1.36-3.79-3.41-3.79S191.44,490.62,191.44,492.89Zm2.29-8a1,1,0,1,1-1-1.06A1,1,0,0,1,193.73,484.92Zm4.38,0a1,1,0,1,1-1-1.06A1,1,0,0,1,198.11,484.92Z"/><path class="cls-2" d="M202.6,498V483.27h1.67V498Z"/><path class="cls-2" d="M209.31,487.8v1.43a3.46,3.46,0,0,1,3-1.67,3.54,3.54,0,0,1,2.36.84,3.3,3.3,0,0,1,.85,2.7V498h-1.67v-6.47a2.8,2.8,0,0,0-.37-1.74,2,2,0,0,0-1.59-.68,2.51,2.51,0,0,0-1.93.85,2.39,2.39,0,0,0-.66,1.85V498h-1.67V487.8Z"/><path class="cls-2" d="M502.73,491l-1.56-1.76a6.86,6.86,0,0,1-4.45,1.58,7.43,7.43,0,0,1-5.41-2.46,7.34,7.34,0,0,1-1.76-5.07c0-4.4,3.08-7.67,7.24-7.67a7.19,7.19,0,0,1,7.17,7.54,7.63,7.63,0,0,1-1.58,4.91L504,489.8Zm-1.58-4.27a6.72,6.72,0,0,0,.9-3.48c0-3.41-2.25-5.92-5.28-5.92a5.27,5.27,0,0,0-4.16,2.07,6.22,6.22,0,0,0-1.17,3.81c0,3.43,2.22,5.89,5.26,5.89a4.47,4.47,0,0,0,3.21-1.21l-1.08-1.21,1.26-1.1Z"/><path class="cls-2" d="M508.51,484.58c0,1.87.27,2.82,1,3.53a4,4,0,0,0,2.6,1,3.78,3.78,0,0,0,2.59-1.08c.8-.77,1-1.52,1-3.48v-8.69h1.9v8.69c0,2.2-.36,3.46-1.3,4.51a5.43,5.43,0,0,1-4.14,1.74,5.49,5.49,0,0,1-4.27-1.85c-.9-1-1.18-2.11-1.18-4.4v-8.69h1.84Z"/><path class="cls-2" d="M522.59,482.34h5.79v1.58h-5.79v5h5.79v1.59h-7.63V475.85h7.63v1.58h-5.79Z"/><path class="cls-2" d="M533.17,490.53h-1.84V475.85h4c3.13,0,5,1.61,5,4.27a4,4,0,0,1-2.11,3.69,6,6,0,0,1-2.71.62l5.7,6.1h-2.36l-5.7-6.17Zm1.85-7.42c2.23,0,3.44-1,3.44-2.86s-1.1-2.82-3.13-2.82h-2.16v5.68Z"/><path class="cls-2" d="M543.43,475.85h3.89c4.42,0,7.09,2.68,7.09,7.11a7.67,7.67,0,0,1-2.31,5.87,7.32,7.32,0,0,1-5.11,1.7h-3.56Zm1.85,13.09h.66c2.48,0,3.54-.26,4.59-1.1a5.86,5.86,0,0,0,2-4.86c0-3.54-1.89-5.57-5.25-5.57h-2Z"/><path class="cls-2" d="M559.05,482.34h5.78v1.58h-5.78v5h5.78v1.59H557.2V475.85h7.63v1.58h-5.78Z"/><path class="cls-2" d="M569.63,490.53h-1.85V475.85h1.69l7.84,11v-11h1.85v14.68h-1.63l-7.9-11.23Z"/><path class="cls-2" d="M584.65,490.53h-1.84V475.85h1.84v6.75l5.7-6.75h2.23l-6.12,7.26,6.12,7.42h-2.36l-5.57-6.78Z"/><path class="cls-2" d="M596.34,482.34h5.78v1.58h-5.78v5h5.78v1.59h-7.63V475.85h7.63v1.58h-5.78Z"/><path class="cls-2" d="M606.92,490.53h-1.85V475.85h1.69l7.84,11v-11h1.85v14.68h-1.63l-7.9-11.23Z"/><path class="cls-2" d="M622.82,486h-4.55v-1.52h4.55Z"/><path class="cls-2" d="M624.41,477.65v-1.58h8.31l-4.31,5.48a4.21,4.21,0,0,1,4.36,4.42,4.7,4.7,0,0,1-4.86,4.8,4.31,4.31,0,0,1-4.47-3.52L625,487a2.79,2.79,0,0,0,2.8,2.2A3.1,3.1,0,0,0,631,486.1a3,3,0,0,0-3.24-3,3,3,0,0,0-1.76.51l-.72-.64,4.24-5.33Z"/><path class="cls-2" d="M638.25,481.94a3.55,3.55,0,0,1,1.43-.28,4.3,4.3,0,0,1,4.33,4.4,4.75,4.75,0,0,1-4.73,4.73,4.62,4.62,0,0,1-4.64-4.73,5.61,5.61,0,0,1,1.12-3.24l4.2-6.75h2Zm-1.87,4.12a3,3,0,1,0,5.91.06,3,3,0,0,0-5.91-.06Z"/><path class="cls-2" d="M647.27,480.67V479l5-3.26v14.79H650.5v-12Z"/><path class="cls-2" d="M492,509.34h5.78v1.58H492v5h5.78v1.59h-7.63V502.85h7.63v1.58H492Z"/><path class="cls-2" d="M502.29,507.38v1.72a2.85,2.85,0,0,1,.92-1.34,3.17,3.17,0,0,1,1.94-.62h.39v1.69a4,4,0,0,0-.46,0,2.61,2.61,0,0,0-2.2,1.17,3.73,3.73,0,0,0-.59,2.4v5.15h-1.67V507.38Z"/><path class="cls-2" d="M509.88,517.53H508.2v-8.67h-1.38v-1.48h1.38V506c0-2,1-3.19,2.8-3.19a4.21,4.21,0,0,1,.46,0v1.5c-1.21.13-1.54.48-1.58,1.67v1.36h1.58v1.48h-1.58Z"/><path class="cls-2" d="M521.19,507.38v6.49a3.36,3.36,0,0,1-1,2.84,4.53,4.53,0,0,1-5.85,0,3.71,3.71,0,0,1-1-2.82v-6.49H515v6.45a2.25,2.25,0,0,0,2.27,2.44,2.38,2.38,0,0,0,1.8-.77,2.24,2.24,0,0,0,.44-1.63v-6.49Z"/><path class="cls-2" d="M525.94,507.38v1.72a2.72,2.72,0,0,1,.92-1.34,3.17,3.17,0,0,1,1.94-.62h.39v1.69a4,4,0,0,0-.46,0,2.61,2.61,0,0,0-2.2,1.17,3.73,3.73,0,0,0-.59,2.4v5.15h-1.68V507.38Z"/><path class="cls-2" d="M533.5,515.46c0,.5.16.61.77.61H535v1.46h-1.56c-1.19,0-1.65-.47-1.65-1.59v-7.08h-1.41v-1.48h1.41v-3.19h1.67v3.19H535v1.48H533.5Z"/><path class="cls-2" d="M708.68,408.65l-1.56-1.76a6.86,6.86,0,0,1-4.45,1.58A7.18,7.18,0,0,1,695.5,401c0-4.4,3.08-7.68,7.24-7.68a7.19,7.19,0,0,1,7.17,7.55,7.6,7.6,0,0,1-1.58,4.9l1.62,1.76Zm-1.59-4.27a6.59,6.59,0,0,0,.91-3.48c0-3.41-2.25-5.91-5.28-5.91a5.29,5.29,0,0,0-4.16,2.06,6.22,6.22,0,0,0-1.17,3.81c0,3.43,2.22,5.9,5.26,5.9a4.47,4.47,0,0,0,3.21-1.21l-1.08-1.21,1.26-1.1Z"/><path class="cls-2" d="M714.46,402.27c0,1.87.27,2.82,1,3.52a4,4,0,0,0,2.6,1,3.78,3.78,0,0,0,2.59-1.08c.8-.77,1-1.52,1-3.48v-8.69h1.9v8.69c0,2.21-.36,3.46-1.3,4.52a5.42,5.42,0,0,1-4.14,1.73,5.5,5.5,0,0,1-4.27-1.84c-.9-1-1.19-2.12-1.19-4.41v-8.69h1.85Z"/><path class="cls-2" d="M728.54,400h5.79v1.59h-5.79v5h5.79v1.58h-7.64V393.53h7.64v1.59h-5.79Z"/><path class="cls-2" d="M739.12,408.21h-1.84V393.53h4c3.12,0,5,1.61,5,4.27a4,4,0,0,1-2.12,3.7,6,6,0,0,1-2.7.61l5.7,6.1h-2.36l-5.7-6.16Zm1.85-7.42c2.22,0,3.43-1,3.43-2.86s-1.1-2.81-3.12-2.81h-2.16v5.67Z"/><path class="cls-2" d="M749.38,393.53h3.89c4.42,0,7.09,2.69,7.09,7.11a7.69,7.69,0,0,1-2.31,5.88,7.38,7.38,0,0,1-5.11,1.69h-3.56Zm1.84,13.1h.66c2.49,0,3.55-.27,4.6-1.1a5.88,5.88,0,0,0,2-4.87c0-3.54-1.89-5.56-5.26-5.56h-2Z"/><path class="cls-2" d="M765,400h5.78v1.59H765v5h5.78v1.58h-7.63V393.53h7.63v1.59H765Z"/><path class="cls-2" d="M775.58,408.21h-1.85V393.53h1.69l7.84,11.05V393.53h1.85v14.68h-1.63L775.58,397Z"/><path class="cls-2" d="M790.6,408.21h-1.84V393.53h1.84v6.76l5.7-6.76h2.22l-6.11,7.26,6.11,7.42h-2.35l-5.57-6.78Z"/><path class="cls-2" d="M802.29,400h5.78v1.59h-5.78v5h5.78v1.58h-7.63V393.53h7.63v1.59h-5.78Z"/><path class="cls-2" d="M812.87,408.21H811V393.53h1.69l7.84,11.05V393.53h1.84v14.68h-1.62L812.87,397Z"/><path class="cls-2" d="M828.77,403.63h-4.55v-1.52h4.55Z"/><path class="cls-2" d="M830.36,395.34v-1.59h8.31l-4.31,5.48a4.22,4.22,0,0,1,4.36,4.43,4.7,4.7,0,0,1-4.87,4.79,4.29,4.29,0,0,1-4.46-3.52l1.58-.28a2.8,2.8,0,0,0,2.8,2.2,3.1,3.1,0,0,0,3.19-3.06,3,3,0,0,0-3.24-3,3.12,3.12,0,0,0-1.76.51l-.72-.64,4.24-5.32Z"/><path class="cls-2" d="M847.91,395.21h-4.73v3.93a5.91,5.91,0,0,1,2.16-.41,4.53,4.53,0,0,1,4.51,4.77,4.74,4.74,0,0,1-5,4.86,4.45,4.45,0,0,1-4.38-3l1.58-.59a4.5,4.5,0,0,0,.75,1.12,3.16,3.16,0,0,0,5.2-2.42,3,3,0,0,0-3.26-3.13,4.62,4.62,0,0,0-3.26,1.5v-8.3h6.38Z"/><path class="cls-2" d="M853.21,398.35v-1.67l5-3.26v14.79h-1.74v-12Z"/><path class="cls-2" d="M696.31,420.53h3.9c4.42,0,7.08,2.69,7.08,7.11a7.65,7.65,0,0,1-2.31,5.88,7.34,7.34,0,0,1-5.1,1.69h-3.57Zm1.85,13.1h.66c2.49,0,3.54-.27,4.6-1.1a5.88,5.88,0,0,0,2-4.87c0-3.54-1.89-5.56-5.26-5.56h-2Z"/><path class="cls-2" d="M711.6,425.07v1.71a2.89,2.89,0,0,1,.93-1.34,3.14,3.14,0,0,1,1.93-.62h.4v1.7a4.12,4.12,0,0,0-.46,0,2.57,2.57,0,0,0-2.2,1.16,3.72,3.72,0,0,0-.6,2.4v5.15h-1.67V425.07Z"/><path class="cls-2" d="M717.52,430.68a3.16,3.16,0,0,0,.66,1.85,3.3,3.3,0,0,0,2.73,1.38,3.49,3.49,0,0,0,3-1.74l1.48.55a5,5,0,0,1-4.51,2.73A5.32,5.32,0,1,1,726,430c0,.13,0,.41,0,.66Zm6.69-1.23a3.16,3.16,0,0,0-.57-1.74,3.5,3.5,0,0,0-2.8-1.39,3.27,3.27,0,0,0-2.73,1.41,4.08,4.08,0,0,0-.57,1.72Z"/><path class="cls-2" d="M733.05,427.84v-.11c0-1-.77-1.54-1.93-1.54s-1.83.57-1.83,1.45.44,1.21,2.27,1.72a5.23,5.23,0,0,1,2.46,1.16,2.83,2.83,0,0,1,.81,2c0,1.76-1.45,2.95-3.6,2.95-2.31,0-3.61-1.08-3.79-3.12h1.65a1.88,1.88,0,0,0,2.14,1.76c1.14,0,1.89-.6,1.89-1.5s-.57-1.32-2.31-1.76c-2.2-.59-3.19-1.52-3.19-3.06,0-1.76,1.43-2.95,3.56-2.95s3.46,1.1,3.54,3Z"/><path class="cls-2" d="M745,420.53h1.67v14.68H745v-1.74a4.14,4.14,0,0,1-3.63,2c-2.8,0-4.78-2.18-4.78-5.26s2-5.37,4.78-5.37a4.34,4.34,0,0,1,3.63,1.79Zm-6.65,9.69c0,2.22,1.35,3.78,3.26,3.78a3.52,3.52,0,0,0,3.39-3.83c0-2.29-1.34-3.85-3.28-3.85S738.35,427.9,738.35,430.22Z"/><path class="cls-2" d="M751,430.68a3.23,3.23,0,0,0,.66,1.85,3.3,3.3,0,0,0,2.73,1.38,3.51,3.51,0,0,0,3-1.74l1.47.55a5,5,0,0,1-4.51,2.73,5.32,5.32,0,1,1,5.09-5.43,5.83,5.83,0,0,1,0,.66Zm6.69-1.23a3.08,3.08,0,0,0-.57-1.74,3.48,3.48,0,0,0-2.79-1.39,3.25,3.25,0,0,0-2.73,1.41,3.94,3.94,0,0,0-.57,1.72Z"/><path class="cls-2" d="M763.57,425.07v1.43a3.47,3.47,0,0,1,3-1.68,3.51,3.51,0,0,1,2.35.84,3.3,3.3,0,0,1,.86,2.71v6.84h-1.67v-6.47a2.82,2.82,0,0,0-.37-1.74,2,2,0,0,0-1.59-.68,2.51,2.51,0,0,0-1.93.86,2.37,2.37,0,0,0-.66,1.85v6.18h-1.68V425.07Z"/><path class="cls-2" d="M554.53,46.31,553,44.55a6.88,6.88,0,0,1-4.45,1.58,7.18,7.18,0,0,1-7.17-7.52c0-4.4,3.08-7.68,7.24-7.68a7.19,7.19,0,0,1,7.17,7.55,7.57,7.57,0,0,1-1.59,4.9l1.63,1.76ZM552.94,42a6.6,6.6,0,0,0,.9-3.48c0-3.41-2.24-5.92-5.28-5.92a5.29,5.29,0,0,0-4.15,2.07,6.22,6.22,0,0,0-1.17,3.81c0,3.43,2.22,5.9,5.26,5.9a4.49,4.49,0,0,0,3.21-1.21L550.63,42l1.26-1.1Z"/><path class="cls-2" d="M560.31,39.93c0,1.87.27,2.81,1,3.52a4,4,0,0,0,2.6,1,3.8,3.8,0,0,0,2.59-1.08c.79-.77,1-1.52,1-3.48V31.19h1.89v8.69c0,2.2-.35,3.46-1.29,4.51a5.39,5.39,0,0,1-4.14,1.74,5.5,5.5,0,0,1-4.27-1.84c-.9-1-1.19-2.12-1.19-4.41V31.19h1.85Z"/><path class="cls-2" d="M574.39,37.68h5.79v1.59h-5.79v5h5.79v1.58h-7.64V31.19h7.64v1.59h-5.79Z"/><path class="cls-2" d="M585,45.87h-1.85V31.19h4c3.12,0,5,1.61,5,4.27a4,4,0,0,1-2.12,3.7,6,6,0,0,1-2.7.61l5.7,6.1h-2.36L585,39.71Zm1.85-7.42c2.22,0,3.43-1,3.43-2.86s-1.1-2.81-3.12-2.81H585v5.67Z"/><path class="cls-2" d="M595.22,31.19h3.9c4.42,0,7.08,2.69,7.08,7.11a7.65,7.65,0,0,1-2.31,5.88,7.34,7.34,0,0,1-5.1,1.69h-3.57Zm1.85,13.1h.66c2.49,0,3.55-.27,4.6-1.11a5.85,5.85,0,0,0,2-4.86c0-3.54-1.89-5.56-5.26-5.56h-2Z"/><path class="cls-2" d="M610.84,37.68h5.79v1.59h-5.79v5h5.79v1.58H609V31.19h7.63v1.59h-5.79Z"/><path class="cls-2" d="M621.43,45.87h-1.85V31.19h1.69l7.84,11.05v-11H631V45.87h-1.62l-7.9-11.22Z"/><path class="cls-2" d="M636.45,45.87H634.6V31.19h1.85V38l5.7-6.76h2.22l-6.11,7.26,6.11,7.42H642l-5.57-6.78Z"/><path class="cls-2" d="M648.13,37.68h5.79v1.59h-5.79v5h5.79v1.58h-7.63V31.19h7.63v1.59h-5.79Z"/><path class="cls-2" d="M658.72,45.87h-1.85V31.19h1.69l7.84,11.05v-11h1.84V45.87h-1.62l-7.9-11.22Z"/><path class="cls-2" d="M674.62,41.29h-4.55V39.77h4.55Z"/><path class="cls-2" d="M676.21,33V31.41h8.31l-4.31,5.48a4.22,4.22,0,0,1,4.36,4.42,4.71,4.71,0,0,1-4.87,4.8,4.29,4.29,0,0,1-4.46-3.52l1.58-.29a2.8,2.8,0,0,0,2.8,2.21,3.1,3.1,0,0,0,3.19-3.06,3,3,0,0,0-3.24-3,3.12,3.12,0,0,0-1.76.51l-.72-.64L681.33,33Z"/><path class="cls-2" d="M694.58,38.85a3.91,3.91,0,0,1,1.1,2.84,4.35,4.35,0,0,1-4.6,4.44,4.35,4.35,0,0,1-3.43-7.24,3.51,3.51,0,0,1,1.71-1,2.74,2.74,0,0,1-1.49-1,3.38,3.38,0,0,1-.75-2.16,3.74,3.74,0,0,1,4-3.63,3.68,3.68,0,0,1,4,3.61,3.42,3.42,0,0,1-.82,2.24,2.87,2.87,0,0,1-1.45.9A3.52,3.52,0,0,1,694.58,38.85Zm-6.3,2.82a2.82,2.82,0,1,0,2.86-2.84A2.83,2.83,0,0,0,688.28,41.67Zm.51-6.87a2.27,2.27,0,0,0,2.33,2.25,2.37,2.37,0,0,0,2.38-2.23,2.29,2.29,0,0,0-2.33-2.13A2.16,2.16,0,0,0,688.79,34.8Z"/><path class="cls-2" d="M699.06,36V34.34l5-3.26V45.87H702.3v-12Z"/><path class="cls-2" d="M544,72.87h-1.85V58.19h4c3.12,0,5,1.61,5,4.27a4,4,0,0,1-2.11,3.7,6,6,0,0,1-2.71.61l5.7,6.1h-2.35L544,66.71Zm1.85-7.42c2.22,0,3.43-1,3.43-2.86s-1.1-2.81-3.12-2.81H544v5.67Z"/><path class="cls-2" d="M563.33,67.83a5.18,5.18,0,0,1-5.2,5.28,5.32,5.32,0,1,1,5.2-5.28Zm-8.61,0a3.43,3.43,0,0,0,3.46,3.76,3.47,3.47,0,0,0,3.43-3.76c0-2.27-1.36-3.79-3.41-3.79S554.72,65.54,554.72,67.81Z"/><path class="cls-2" d="M570.56,65.5v-.11c0-1-.77-1.54-1.93-1.54s-1.83.57-1.83,1.45.44,1.21,2.27,1.72a5.18,5.18,0,0,1,2.46,1.16,2.82,2.82,0,0,1,.82,2c0,1.76-1.46,3-3.61,3-2.31,0-3.61-1.08-3.79-3.12h1.65a1.88,1.88,0,0,0,2.14,1.76c1.14,0,1.89-.6,1.89-1.5s-.57-1.32-2.31-1.76c-2.2-.59-3.19-1.52-3.19-3.06,0-1.76,1.43-3,3.56-3s3.46,1.1,3.55,3Z"/><path class="cls-2" d="M576.7,70.8c0,.51.16.62.77.62h.77v1.45h-1.56c-1.19,0-1.65-.46-1.65-1.58V64.2h-1.41V62.73H575V59.54h1.67v3.19h1.54V64.2H576.7Z"/><path class="cls-2" d="M589.92,67.83a5.17,5.17,0,0,1-5.19,5.28,5.32,5.32,0,1,1,5.19-5.28Zm-8.6,0a3.43,3.43,0,0,0,3.46,3.76,3.47,3.47,0,0,0,3.43-3.76c0-2.27-1.37-3.79-3.41-3.79S581.32,65.54,581.32,67.81Z"/><path class="cls-2" d="M600.37,71.61a5.16,5.16,0,0,1-3.74,1.5,4.94,4.94,0,0,1-5-5.28,5,5,0,0,1,5.06-5.35,5.05,5.05,0,0,1,3.7,1.52l-1.08,1.08A3.75,3.75,0,0,0,596.77,64a3.42,3.42,0,0,0-3.39,3.74c0,2.25,1.38,3.81,3.36,3.81a3.55,3.55,0,0,0,2.6-1.1Z"/><path class="cls-2" d="M604,72.87h-1.67V58.19H604v9l4-4.44h2.11l-4.53,5,4.51,5.19H608l-4-4.53Z"/><path class="cls-2" d="M207.06,148.44l-1.56-1.76a6.86,6.86,0,0,1-4.45,1.58,7.43,7.43,0,0,1-5.41-2.46,7.34,7.34,0,0,1-1.76-5.06c0-4.41,3.08-7.68,7.24-7.68a7.19,7.19,0,0,1,7.17,7.54,7.63,7.63,0,0,1-1.58,4.91l1.62,1.76Zm-1.59-4.27a6.64,6.64,0,0,0,.91-3.48c0-3.41-2.25-5.92-5.28-5.92a5.27,5.27,0,0,0-4.16,2.07,6.22,6.22,0,0,0-1.17,3.81c0,3.43,2.22,5.89,5.26,5.89a4.47,4.47,0,0,0,3.21-1.21l-1.08-1.21,1.26-1.1Z"/><path class="cls-2" d="M212.84,142.06c0,1.87.27,2.81,1,3.52a4,4,0,0,0,2.6,1,3.78,3.78,0,0,0,2.59-1.08c.8-.77,1-1.52,1-3.48v-8.69h1.9V142c0,2.2-.36,3.46-1.3,4.51a5.43,5.43,0,0,1-4.14,1.74,5.49,5.49,0,0,1-4.27-1.85c-.9-1-1.19-2.11-1.19-4.4v-8.69h1.85Z"/><path class="cls-2" d="M226.92,139.81h5.79v1.59h-5.79v5h5.79V148h-7.64V133.32h7.64v1.58h-5.79Z"/><path class="cls-2" d="M237.5,148h-1.84V133.32h4c3.12,0,5,1.61,5,4.27a4,4,0,0,1-2.11,3.7,6.19,6.19,0,0,1-2.71.61l5.7,6.1H243.2l-5.7-6.16Zm1.85-7.42c2.22,0,3.43-1,3.43-2.86s-1.1-2.82-3.12-2.82H237.5v5.68Z"/><path class="cls-2" d="M247.76,133.32h3.89c4.42,0,7.09,2.68,7.09,7.11a7.67,7.67,0,0,1-2.31,5.87,7.34,7.34,0,0,1-5.11,1.7h-3.56Zm1.84,13.09h.66c2.49,0,3.55-.26,4.6-1.1a5.85,5.85,0,0,0,2-4.86c0-3.54-1.89-5.57-5.26-5.57h-2Z"/><path class="cls-2" d="M263.38,139.81h5.78v1.59h-5.78v5h5.78V148h-7.63V133.32h7.63v1.58h-5.78Z"/><path class="cls-2" d="M274,148h-1.85V133.32h1.69l7.84,11.05V133.32h1.85V148h-1.63L274,136.77Z"/><path class="cls-2" d="M289,148h-1.84V133.32H289v6.76l5.7-6.76h2.22l-6.11,7.26L296.9,148h-2.35L289,141.22Z"/><path class="cls-2" d="M300.67,139.81h5.78v1.59h-5.78v5h5.78V148h-7.63V133.32h7.63v1.58h-5.78Z"/><path class="cls-2" d="M311.25,148H309.4V133.32h1.69l7.84,11.05V133.32h1.84V148h-1.62l-7.9-11.23Z"/><path class="cls-2" d="M327.15,143.42H322.6V141.9h4.55Z"/><path class="cls-2" d="M335.29,135h-4.73v3.94a5.72,5.72,0,0,1,2.16-.42,4.53,4.53,0,0,1,4.51,4.78,4.74,4.74,0,0,1-5,4.86,4.46,4.46,0,0,1-4.38-3l1.59-.6a4.1,4.1,0,0,0,.74,1.12,3,3,0,0,0,2.09.75,3.08,3.08,0,0,0,3.11-3.17,3,3,0,0,0-3.26-3.12,4.64,4.64,0,0,0-3.26,1.5v-8.3h6.38Z"/><path class="cls-2" d="M348,143.57a4.66,4.66,0,0,1-1,3.44,5.13,5.13,0,0,1-6.72,0c-.77-.81-1-1.65-1-3.87v-4.84c0-1.92.22-2.82.88-3.61a4.29,4.29,0,0,1,3.43-1.36,4.75,4.75,0,0,1,3.26,1.1c.83.77,1.14,1.65,1.14,3.36Zm-7-.37c0,1.69.07,2,.56,2.55a2.8,2.8,0,0,0,2.09.86,2.62,2.62,0,0,0,2.15-1,3.68,3.68,0,0,0,.46-2.18v-5.61a2.69,2.69,0,0,0-.74-2.24,2.77,2.77,0,0,0-1.87-.68,2.47,2.47,0,0,0-2.18,1,3.52,3.52,0,0,0-.47,2.31Z"/><path class="cls-2" d="M284.47,160.32c3,0,4.69,1.41,4.69,3.89a3.52,3.52,0,0,1-.83,2.4,3.26,3.26,0,0,1-1.5.95,3.76,3.76,0,0,1,1.67.68,3.5,3.5,0,0,1,1.21,2.82,3.72,3.72,0,0,1-1.58,3.19,6.27,6.27,0,0,1-3.66.75h-4.13V160.32Zm-2.28,6.6,1.87,0a3.68,3.68,0,0,0,2.4-.57,2.6,2.6,0,0,0,.9-2,2.28,2.28,0,0,0-1.17-2.11,5.45,5.45,0,0,0-2.49-.35h-1.51Zm0,6.58H284a5,5,0,0,0,2.78-.48,2.19,2.19,0,0,0,1.05-2.07c0-1.76-1-2.53-3.36-2.53h-2.31Z"/><path class="cls-2" d="M294,164.85v1.72a2.85,2.85,0,0,1,.92-1.34,3.17,3.17,0,0,1,1.94-.62h.4v1.69a4.29,4.29,0,0,0-.47,0,2.61,2.61,0,0,0-2.2,1.17,3.73,3.73,0,0,0-.59,2.4V175h-1.67V164.85Z"/><path class="cls-2" d="M299.9,170.46a3.1,3.1,0,0,0,.66,1.85,3.29,3.29,0,0,0,2.72,1.39,3.5,3.5,0,0,0,3-1.74l1.48.55a5.15,5.15,0,0,1-9.69-2.55,5.13,5.13,0,1,1,10.26-.16c0,.14,0,.42,0,.66Zm6.69-1.23a3.14,3.14,0,0,0-.58-1.74,3.48,3.48,0,0,0-2.79-1.38,3.26,3.26,0,0,0-2.73,1.41,3.94,3.94,0,0,0-.57,1.71Z"/><path class="cls-2" d="M312.46,164.85v1.41a3.16,3.16,0,0,1,2.88-1.65,2.61,2.61,0,0,1,2.73,1.85,3.31,3.31,0,0,1,3.21-1.85,3.07,3.07,0,0,1,2.58,1.08c.48.64.61,1.21.61,2.82V175H322.8v-6.1c0-1.23,0-1.52-.29-1.93a2,2,0,0,0-1.76-.86c-1.47,0-2.28,1-2.28,2.79V175h-1.68v-6.08a3.7,3.7,0,0,0-.33-1.93,1.74,1.74,0,0,0-1.65-.88c-1.47,0-2.35,1-2.35,2.81V175h-1.67V164.85Z"/><path class="cls-2" d="M328.74,170.46a3.16,3.16,0,0,0,.66,1.85,3.31,3.31,0,0,0,2.73,1.39,3.49,3.49,0,0,0,3-1.74l1.48.55a5.21,5.21,0,1,1-4.58-7.9,5,5,0,0,1,5.15,5.19c0,.14,0,.42,0,.66Zm6.69-1.23a3.21,3.21,0,0,0-.57-1.74,3.51,3.51,0,0,0-2.8-1.38,3.27,3.27,0,0,0-2.73,1.41,3.94,3.94,0,0,0-.57,1.71Z"/><path class="cls-2" d="M341.3,164.85v1.43a3.46,3.46,0,0,1,3-1.67,3.54,3.54,0,0,1,2.36.84,3.27,3.27,0,0,1,.86,2.7V175h-1.68v-6.47a2.82,2.82,0,0,0-.37-1.74,1.94,1.94,0,0,0-1.58-.68A2.51,2.51,0,0,0,342,167a2.39,2.39,0,0,0-.66,1.84V175h-1.67V164.85Z"/><path class="cls-2" d="M457.36,143.2l-1.56-1.76a6.87,6.87,0,0,1-4.45,1.59,7.44,7.44,0,0,1-5.41-2.47,7.3,7.3,0,0,1-1.76-5.06c0-4.4,3.08-7.68,7.24-7.68a7.2,7.2,0,0,1,7.17,7.55,7.65,7.65,0,0,1-1.58,4.91l1.63,1.76Zm-1.58-4.26a6.72,6.72,0,0,0,.9-3.48c0-3.41-2.25-5.92-5.28-5.92a5.27,5.27,0,0,0-4.16,2.07,6.22,6.22,0,0,0-1.17,3.81c0,3.43,2.22,5.89,5.26,5.89a4.47,4.47,0,0,0,3.21-1.21l-1.07-1.21,1.25-1.1Z"/><path class="cls-2" d="M463.14,136.82c0,1.87.27,2.82,1,3.52a4,4,0,0,0,2.6,1,3.77,3.77,0,0,0,2.59-1.07c.8-.77,1-1.52,1-3.48v-8.69h1.89v8.69c0,2.2-.35,3.45-1.3,4.51a5.43,5.43,0,0,1-4.14,1.74,5.49,5.49,0,0,1-4.27-1.85c-.9-1-1.18-2.11-1.18-4.4v-8.69h1.84Z"/><path class="cls-2" d="M477.22,134.58H483v1.58h-5.79v5H483v1.58h-7.63V128.09H483v1.58h-5.79Z"/><path class="cls-2" d="M487.8,142.76H486V128.09h4c3.13,0,5,1.61,5,4.27a4,4,0,0,1-2.11,3.69,6,6,0,0,1-2.71.62l5.7,6.09H493.5l-5.7-6.16Zm1.85-7.41c2.23,0,3.44-1,3.44-2.86s-1.1-2.82-3.13-2.82H487.8v5.68Z"/><path class="cls-2" d="M498.06,128.09H502c4.42,0,7.09,2.68,7.09,7.11a7.67,7.67,0,0,1-2.31,5.87,7.37,7.37,0,0,1-5.11,1.69h-3.56Zm1.85,13.09h.66c2.48,0,3.54-.26,4.59-1.1a5.86,5.86,0,0,0,2-4.86c0-3.54-1.89-5.57-5.25-5.57h-2Z"/><path class="cls-2" d="M513.68,134.58h5.78v1.58h-5.78v5h5.78v1.58h-7.63V128.09h7.63v1.58h-5.78Z"/><path class="cls-2" d="M524.26,142.76h-1.85V128.09h1.69l7.84,11v-11h1.85v14.67h-1.63l-7.9-11.22Z"/><path class="cls-2" d="M539.28,142.76h-1.84V128.09h1.84v6.75l5.7-6.75h2.23l-6.12,7.26,6.12,7.41h-2.36L539.28,136Z"/><path class="cls-2" d="M551,134.58h5.78v1.58H551v5h5.78v1.58h-7.63V128.09h7.63v1.58H551Z"/><path class="cls-2" d="M561.55,142.76H559.7V128.09h1.69l7.84,11v-11h1.85v14.67h-1.63l-7.9-11.22Z"/><path class="cls-2" d="M577.45,138.19H572.9v-1.52h4.55Z"/><path class="cls-2" d="M578.31,139.46V138.1l7.57-10.21v10h1.72v1.58h-1.72v3.3h-1.69v-3.3Zm5.88-7.19-4.12,5.61h4.12Z"/><path class="cls-2" d="M598.31,138.34a4.64,4.64,0,0,1-1,3.43,5.1,5.1,0,0,1-6.71,0c-.77-.81-1-1.65-1-3.87V133c0-1.92.22-2.82.88-3.61a4.29,4.29,0,0,1,3.43-1.37,4.8,4.8,0,0,1,3.26,1.1c.83.78,1.14,1.66,1.14,3.37Zm-7-.37c0,1.69.06,2,.55,2.55a2.8,2.8,0,0,0,2.09.86,2.64,2.64,0,0,0,2.15-1,3.68,3.68,0,0,0,.46-2.18v-5.61a2.69,2.69,0,0,0-.74-2.24,2.77,2.77,0,0,0-1.87-.68,2.47,2.47,0,0,0-2.18,1.05,3.53,3.53,0,0,0-.46,2.31Z"/><path class="cls-2" d="M446.84,169.76H445V155.09h1.85v6.6H454v-6.6h1.85v14.67H454v-6.49h-7.15Z"/><path class="cls-2" d="M467,159.62h1.67v10.14H467v-1.95a4.22,4.22,0,0,1-3.7,2.2c-2.79,0-4.77-2.2-4.77-5.28s2-5.35,4.81-5.35a4.25,4.25,0,0,1,3.66,1.91Zm-5.88,2.47a4.58,4.58,0,0,0-.83,2.68c0,2.16,1.4,3.78,3.25,3.78a3.75,3.75,0,0,0,3.48-4,3.41,3.41,0,0,0-3.43-3.71A2.77,2.77,0,0,0,461.14,162.09Z"/><path class="cls-2" d="M473.73,159.62V161a3.15,3.15,0,0,1,2.88-1.65,2.62,2.62,0,0,1,2.73,1.85,3.31,3.31,0,0,1,3.21-1.85,3,3,0,0,1,2.57,1.08c.49.64.62,1.21.62,2.81v6.49h-1.67v-6.09c0-1.23-.05-1.52-.29-1.94a2,2,0,0,0-1.76-.85c-1.47,0-2.29,1-2.29,2.79v6.09h-1.67v-6.07a3.8,3.8,0,0,0-.33-1.93,1.73,1.73,0,0,0-1.65-.88c-1.47,0-2.35,1.05-2.35,2.81v6.07h-1.68V159.62Z"/><path class="cls-2" d="M490.71,169.76H489V155.09h1.67v6.27a4.11,4.11,0,0,1,3.56-2c2.84,0,4.82,2.2,4.82,5.35s-2,5.28-4.73,5.28a4.15,4.15,0,0,1-3.65-2Zm0-5.06c0,2.31,1.32,3.85,3.3,3.85s3.34-1.51,3.34-3.78-1.36-3.89-3.28-3.89S490.69,162.48,490.69,164.7Z"/><path class="cls-2" d="M509.23,159.62v6.49a3.35,3.35,0,0,1-1,2.84,4.53,4.53,0,0,1-5.85,0,3.73,3.73,0,0,1-1-2.82v-6.49H503v6.45a2.25,2.25,0,0,0,2.27,2.44,2.42,2.42,0,0,0,1.8-.77,2.26,2.26,0,0,0,.44-1.63v-6.49Z"/><path class="cls-2" d="M514,159.62v1.72a2.79,2.79,0,0,1,.93-1.34,3.17,3.17,0,0,1,1.94-.62h.39v1.69a4,4,0,0,0-.46,0,2.61,2.61,0,0,0-2.2,1.17,3.72,3.72,0,0,0-.6,2.4v5.14h-1.67V159.62Z"/><path class="cls-2" d="M526.59,159.62h1.67v10.21a4.71,4.71,0,0,1-1.34,3.72,5.22,5.22,0,0,1-3.74,1.34,5.69,5.69,0,0,1-4.49-1.85l1.15-1.14a6.46,6.46,0,0,0,1,.88,5,5,0,0,0,2.38.59,3.65,3.65,0,0,0,2.64-1,3.45,3.45,0,0,0,.77-2.42v-2.13a4.22,4.22,0,0,1-3.74,2.18c-2.68,0-4.69-2.27-4.69-5.28a5.83,5.83,0,0,1,1.61-4.16,4.47,4.47,0,0,1,3.21-1.19,4.09,4.09,0,0,1,3.61,2Zm-6.67,5c0,2.18,1.41,3.81,3.33,3.81a3.43,3.43,0,0,0,2.57-1.24,4.06,4.06,0,0,0,.73-2.5,3.57,3.57,0,0,0-.79-2.69,3.47,3.47,0,0,0-2.47-1.12A3.42,3.42,0,0,0,519.92,164.66Z"/><path class="cls-2" d="M640.36,211.14l-1.56-1.76a6.84,6.84,0,0,1-4.44,1.58,7.18,7.18,0,0,1-7.17-7.52c0-4.4,3.08-7.68,7.23-7.68a7.2,7.2,0,0,1,7.18,7.55,7.63,7.63,0,0,1-1.59,4.9l1.63,1.76Zm-1.58-4.27a6.6,6.6,0,0,0,.9-3.48c0-3.41-2.24-5.92-5.28-5.92a5.31,5.31,0,0,0-4.16,2.07,6.28,6.28,0,0,0-1.16,3.81c0,3.43,2.22,5.9,5.26,5.9a4.5,4.5,0,0,0,3.21-1.21l-1.08-1.21,1.25-1.1Z"/><path class="cls-2" d="M646.15,204.76c0,1.87.26,2.81,1,3.52a4,4,0,0,0,2.59,1,3.8,3.8,0,0,0,2.6-1.08c.79-.77,1-1.52,1-3.48V196h1.89v8.69c0,2.2-.35,3.46-1.3,4.51a5.37,5.37,0,0,1-4.13,1.74,5.48,5.48,0,0,1-4.27-1.85c-.9-1-1.19-2.11-1.19-4.4V196h1.85Z"/><path class="cls-2" d="M660.23,202.51H666v1.59h-5.79v5H666v1.59h-7.64V196H666v1.59h-5.79Z"/><path class="cls-2" d="M670.81,210.7H669V196h4c3.12,0,5,1.61,5,4.27a4,4,0,0,1-2.11,3.7,6,6,0,0,1-2.7.61l5.69,6.1h-2.35l-5.7-6.16Zm1.85-7.42c2.22,0,3.43-1,3.43-2.86s-1.1-2.81-3.12-2.81h-2.16v5.67Z"/><path class="cls-2" d="M681.06,196H685c4.42,0,7.08,2.69,7.08,7.11a7.62,7.62,0,0,1-2.31,5.87,7.3,7.3,0,0,1-5.1,1.7h-3.57Zm1.85,13.09h.66c2.49,0,3.54-.26,4.6-1.1a5.85,5.85,0,0,0,2-4.86c0-3.54-1.89-5.56-5.26-5.56h-2Z"/><path class="cls-2" d="M696.68,202.51h5.79v1.59h-5.79v5h5.79v1.59h-7.64V196h7.64v1.59h-5.79Z"/><path class="cls-2" d="M707.26,210.7h-1.84V196h1.69l7.83,11V196h1.85V210.7h-1.63l-7.9-11.22Z"/><path class="cls-2" d="M722.29,210.7h-1.85V196h1.85v6.76L728,196h2.22l-6.12,7.26,6.12,7.42h-2.35l-5.57-6.78Z"/><path class="cls-2" d="M734,202.51h5.79v1.59H734v5h5.79v1.59h-7.64V196h7.64v1.59H734Z"/><path class="cls-2" d="M744.55,210.7h-1.84V196h1.69l7.83,11V196h1.85V210.7h-1.63l-7.9-11.22Z"/><path class="cls-2" d="M760.46,206.12h-4.55V204.6h4.55Z"/><path class="cls-2" d="M762,197.83v-1.59h8.32l-4.31,5.48a4.21,4.21,0,0,1,4.35,4.42,4.7,4.7,0,0,1-4.86,4.8,4.29,4.29,0,0,1-4.46-3.52l1.58-.29a2.79,2.79,0,0,0,2.79,2.2,3.09,3.09,0,0,0,3.19-3.05,3,3,0,0,0-3.23-3,3.12,3.12,0,0,0-1.76.51l-.73-.64,4.25-5.32Z"/><path class="cls-2" d="M781.32,206.28a4.6,4.6,0,0,1-1,3.43,5.11,5.11,0,0,1-6.71-.05c-.77-.81-1-1.65-1-3.87V201c0-1.91.22-2.81.88-3.61a4.32,4.32,0,0,1,3.44-1.36,4.7,4.7,0,0,1,3.25,1.1c.84.77,1.15,1.65,1.15,3.37Zm-7-.38c0,1.7.07,2,.55,2.55a2.81,2.81,0,0,0,2.09.86,2.64,2.64,0,0,0,2.16-1,3.66,3.66,0,0,0,.46-2.17v-5.62a2.7,2.7,0,0,0-.75-2.24,2.74,2.74,0,0,0-1.87-.68,2.48,2.48,0,0,0-2.18,1.05,3.61,3.61,0,0,0-.46,2.32Z"/><path class="cls-2" d="M632.14,223c3,0,4.68,1.41,4.68,3.9a3.56,3.56,0,0,1-.83,2.4,3.34,3.34,0,0,1-1.5.94,3.76,3.76,0,0,1,1.67.68,3.5,3.5,0,0,1,1.21,2.82,3.72,3.72,0,0,1-1.58,3.19,6.25,6.25,0,0,1-3.65.75H628V223Zm-2.29,6.6,1.87,0a3.68,3.68,0,0,0,2.4-.57,2.58,2.58,0,0,0,.9-2,2.29,2.29,0,0,0-1.17-2.12,5.42,5.42,0,0,0-2.48-.35h-1.52Zm0,6.58h1.85a4.94,4.94,0,0,0,2.77-.48,2.19,2.19,0,0,0,1-2.07c0-1.76-1-2.53-3.36-2.53h-2.31Z"/><path class="cls-2" d="M640.94,233.17a3.09,3.09,0,0,0,.66,1.84,3.27,3.27,0,0,0,2.72,1.39,3.5,3.5,0,0,0,3-1.74l1.47.55a5,5,0,0,1-4.51,2.73,5.32,5.32,0,1,1,5.09-5.43,5.83,5.83,0,0,1,0,.66Zm6.68-1.24a3.07,3.07,0,0,0-.57-1.73,3.48,3.48,0,0,0-2.79-1.39,3.26,3.26,0,0,0-2.73,1.41,3.94,3.94,0,0,0-.57,1.71Z"/><path class="cls-2" d="M653.5,227.55v1.72a3,3,0,0,1,.92-1.34,3.17,3.17,0,0,1,1.94-.62h.39V229a4,4,0,0,0-.46,0,2.6,2.6,0,0,0-2.2,1.16,3.73,3.73,0,0,0-.59,2.4v5.15h-1.67V227.55Z"/><path class="cls-2" d="M658.65,237.7V223h1.67V237.7Z"/><path class="cls-2" d="M665.6,224.72a1.06,1.06,0,0,1-1.08,1.05,1.08,1.08,0,0,1,0-2.15A1.07,1.07,0,0,1,665.6,224.72Zm-.25,13h-1.67V227.55h1.67Z"/><path class="cls-2" d="M670.39,227.55V229a3.47,3.47,0,0,1,3-1.68,3.51,3.51,0,0,1,2.35.84,3.3,3.3,0,0,1,.86,2.71v6.84H675v-6.47a2.74,2.74,0,0,0-.38-1.74,1.94,1.94,0,0,0-1.58-.68,2.54,2.54,0,0,0-1.94.86,2.41,2.41,0,0,0-.66,1.85v6.18h-1.67V227.55Z"/><path class="cls-2" d="M220.08,261.93l-1.56-1.76a6.85,6.85,0,0,1-4.45,1.59,7.44,7.44,0,0,1-5.41-2.47,7.35,7.35,0,0,1-1.76-5.06c0-4.4,3.08-7.68,7.24-7.68a7.2,7.2,0,0,1,7.17,7.55,7.65,7.65,0,0,1-1.58,4.91l1.63,1.76Zm-1.58-4.26a6.63,6.63,0,0,0,.9-3.48c0-3.41-2.24-5.92-5.28-5.92a5.27,5.27,0,0,0-4.16,2.07,6.22,6.22,0,0,0-1.17,3.81c0,3.43,2.23,5.89,5.26,5.89a4.51,4.51,0,0,0,3.22-1.21l-1.08-1.21,1.25-1.1Z"/><path class="cls-2" d="M225.87,255.55c0,1.87.26,2.82,1,3.52a4,4,0,0,0,2.6,1A3.81,3.81,0,0,0,232,259c.79-.77,1-1.52,1-3.48v-8.69h1.89v8.69c0,2.2-.35,3.45-1.3,4.51a5.41,5.41,0,0,1-4.14,1.74,5.47,5.47,0,0,1-4.26-1.85c-.91-1-1.19-2.11-1.19-4.4v-8.69h1.85Z"/><path class="cls-2" d="M240,253.31h5.78v1.58H240v5h5.78v1.58H238.1V246.82h7.63v1.58H240Z"/><path class="cls-2" d="M250.53,261.49h-1.85V246.82h4c3.13,0,5,1.6,5,4.27a4,4,0,0,1-2.11,3.69,6,6,0,0,1-2.71.62l5.7,6.09h-2.35l-5.7-6.16Zm1.85-7.41c2.22,0,3.43-1,3.43-2.86s-1.1-2.82-3.13-2.82h-2.15v5.68Z"/><path class="cls-2" d="M260.78,246.82h3.89c4.43,0,7.09,2.68,7.09,7.11a7.67,7.67,0,0,1-2.31,5.87,7.37,7.37,0,0,1-5.11,1.69h-3.56Zm1.85,13.09h.66c2.48,0,3.54-.26,4.6-1.1a5.86,5.86,0,0,0,2-4.86c0-3.55-1.9-5.57-5.26-5.57h-2Z"/><path class="cls-2" d="M276.4,253.31h5.79v1.58H276.4v5h5.79v1.58h-7.64V246.82h7.64v1.58H276.4Z"/><path class="cls-2" d="M287,261.49h-1.85V246.82h1.7l7.83,11v-11h1.85v14.67h-1.63L287,250.27Z"/><path class="cls-2" d="M302,261.49h-1.85V246.82H302v6.75l5.7-6.75h2.22l-6.12,7.26,6.12,7.41h-2.36L302,254.72Z"/><path class="cls-2" d="M313.69,253.31h5.79v1.58h-5.79v5h5.79v1.58h-7.64V246.82h7.64v1.58h-5.79Z"/><path class="cls-2" d="M324.27,261.49h-1.85V246.82h1.7l7.83,11v-11h1.85v14.67h-1.63l-7.9-11.22Z"/><path class="cls-2" d="M340.18,256.92h-4.56V255.4h4.56Z"/><path class="cls-2" d="M348.32,248.49h-4.73v3.94a5.64,5.64,0,0,1,2.15-.42,4.53,4.53,0,0,1,4.51,4.78,4.74,4.74,0,0,1-4.95,4.86,4.46,4.46,0,0,1-4.38-3l1.59-.59a3.85,3.85,0,0,0,.75,1.12,3.15,3.15,0,0,0,5.19-2.42,3,3,0,0,0-3.26-3.12,4.63,4.63,0,0,0-3.25,1.49v-8.29h6.38Z"/><path class="cls-2" d="M353.62,251.64V250l5-3.25v14.78h-1.74v-12Z"/><path class="cls-2" d="M364.62,251.64V250l5-3.25v14.78h-1.74v-12Z"/><path class="cls-2" d="M287.29,288.49h-1.85V273.82h1.85v6.6h7.15v-6.6h1.85v14.67h-1.85V282h-7.15Z"/><path class="cls-2" d="M307.47,278.35h1.67v10.14h-1.67v-1.95a4.23,4.23,0,0,1-3.7,2.2c-2.8,0-4.78-2.2-4.78-5.28s2-5.35,4.82-5.35a4.26,4.26,0,0,1,3.66,1.91Zm-5.88,2.47a4.59,4.59,0,0,0-.84,2.68c0,2.16,1.41,3.78,3.26,3.78a3.76,3.76,0,0,0,3.48-4,3.42,3.42,0,0,0-3.44-3.71A2.74,2.74,0,0,0,301.59,280.82Z"/><path class="cls-2" d="M314.17,278.35v1.43a3.46,3.46,0,0,1,3-1.67,3.51,3.51,0,0,1,2.35.84,3.27,3.27,0,0,1,.86,2.7v6.84h-1.67V282a2.72,2.72,0,0,0-.38-1.74,1.93,1.93,0,0,0-1.58-.68,2.53,2.53,0,0,0-1.94.85,2.43,2.43,0,0,0-.66,1.85v6.18H312.5V278.35Z"/><path class="cls-2" d="M325.37,278.35v1.43a3.46,3.46,0,0,1,3-1.67,3.51,3.51,0,0,1,2.35.84,3.27,3.27,0,0,1,.86,2.7v6.84h-1.67V282a2.72,2.72,0,0,0-.38-1.74,1.94,1.94,0,0,0-1.58-.68,2.53,2.53,0,0,0-1.94.85,2.43,2.43,0,0,0-.66,1.85v6.18H323.7V278.35Z"/><path class="cls-2" d="M344.4,283.46a5.18,5.18,0,0,1-5.19,5.28,5.32,5.32,0,1,1,5.19-5.28Zm-8.6,0c0,2.25,1.39,3.77,3.45,3.77a3.48,3.48,0,0,0,3.44-3.77c0-2.26-1.37-3.78-3.41-3.78S335.8,281.17,335.8,283.43Z"/><path class="cls-2" d="M354.46,278.35l-3.83,10.14h-1.76l-3.72-10.14h1.76l2.86,7.75,3-7.75Z"/><path class="cls-2" d="M357,284a3.16,3.16,0,0,0,.66,1.85,3.31,3.31,0,0,0,2.73,1.39,3.53,3.53,0,0,0,3-1.74l1.47.55a5,5,0,0,1-4.51,2.73,5.32,5.32,0,1,1,5.08-5.44c0,.13,0,.42,0,.66Zm6.69-1.23a3.13,3.13,0,0,0-.57-1.74,3.47,3.47,0,0,0-2.79-1.38,3.24,3.24,0,0,0-2.73,1.4,4,4,0,0,0-.57,1.72Z"/><path class="cls-2" d="M369.52,278.35v1.72a2.88,2.88,0,0,1,.93-1.35,3.23,3.23,0,0,1,1.94-.61h.39v1.69a4,4,0,0,0-.46,0,2.61,2.61,0,0,0-2.2,1.17,3.72,3.72,0,0,0-.6,2.4v5.14h-1.67V278.35Z"/><path class="cls-2" d="M375.77,334.14l-1.56-1.76a6.85,6.85,0,0,1-4.44,1.59,7.44,7.44,0,0,1-5.42-2.47,7.35,7.35,0,0,1-1.76-5.06c0-4.4,3.08-7.68,7.24-7.68a7.21,7.21,0,0,1,7.18,7.55,7.66,7.66,0,0,1-1.59,4.91l1.63,1.76Zm-1.58-4.26a6.63,6.63,0,0,0,.9-3.48c0-3.41-2.24-5.92-5.28-5.92a5.27,5.27,0,0,0-4.16,2.07,6.2,6.2,0,0,0-1.16,3.8c0,3.44,2.22,5.9,5.25,5.9A4.51,4.51,0,0,0,373,331l-1.08-1.21,1.25-1.1Z"/><path class="cls-2" d="M381.56,327.76c0,1.87.26,2.82,1,3.52a3.94,3.94,0,0,0,2.59,1,3.79,3.79,0,0,0,2.6-1.07c.79-.77,1-1.52,1-3.48V319h1.89v8.69c0,2.2-.35,3.45-1.3,4.51a5.4,5.4,0,0,1-4.13,1.74,5.48,5.48,0,0,1-4.27-1.85c-.9-1-1.19-2.11-1.19-4.4V319h1.85Z"/><path class="cls-2" d="M395.64,325.52h5.78v1.58h-5.78v5h5.78v1.58h-7.63V319h7.63v1.58h-5.78Z"/><path class="cls-2" d="M406.22,333.7h-1.85V319h4c3.12,0,5,1.6,5,4.27a4,4,0,0,1-2.11,3.69,6,6,0,0,1-2.71.62l5.7,6.09h-2.35l-5.7-6.16Zm1.85-7.41c2.22,0,3.43-1,3.43-2.86s-1.1-2.82-3.12-2.82h-2.16v5.68Z"/><path class="cls-2" d="M416.47,319h3.9c4.42,0,7.08,2.68,7.08,7.11a7.63,7.63,0,0,1-2.31,5.87,7.36,7.36,0,0,1-5.1,1.69h-3.57Zm1.85,13.09H419c2.49,0,3.54-.26,4.6-1.1a5.86,5.86,0,0,0,2-4.86c0-3.55-1.89-5.57-5.26-5.57h-2Z"/><path class="cls-2" d="M432.09,325.52h5.79v1.58h-5.79v5h5.79v1.58h-7.64V319h7.64v1.58h-5.79Z"/><path class="cls-2" d="M442.67,333.7h-1.85V319h1.7l7.83,11V319h1.85V333.7h-1.63l-7.9-11.22Z"/><path class="cls-2" d="M457.7,333.7h-1.85V319h1.85v6.75l5.7-6.75h2.22l-6.12,7.26,6.12,7.41h-2.35l-5.57-6.77Z"/><path class="cls-2" d="M469.38,325.52h5.79v1.58h-5.79v5h5.79v1.58h-7.64V319h7.64v1.58h-5.79Z"/><path class="cls-2" d="M480,333.7h-1.85V319h1.7l7.83,11V319h1.85V333.7h-1.63L480,322.48Z"/><path class="cls-2" d="M495.87,329.13h-4.56v-1.52h4.56Z"/><path class="cls-2" d="M504,320.7h-4.73v3.94a5.71,5.71,0,0,1,2.15-.42A4.54,4.54,0,0,1,506,329a4.74,4.74,0,0,1-5,4.86,4.45,4.45,0,0,1-4.37-3l1.58-.59a4.06,4.06,0,0,0,.75,1.12,3.15,3.15,0,0,0,5.19-2.42,3,3,0,0,0-3.26-3.12,4.59,4.59,0,0,0-3.25,1.49V319H504Z"/><path class="cls-2" d="M511.29,325.12a3.59,3.59,0,0,1,1.43-.28,4.3,4.3,0,0,1,4.33,4.4,4.75,4.75,0,0,1-4.73,4.73,4.63,4.63,0,0,1-4.64-4.73A5.66,5.66,0,0,1,508.8,326l4.21-6.75h2Zm-1.87,4.12a3,3,0,1,0,5.92.06,3,3,0,0,0-5.92-.06Z"/><path class="cls-2" d="M520.31,323.85v-1.68l5-3.25V333.7h-1.74v-12Z"/><path class="cls-2" d="M365.26,360.7h-1.85V346h1.85v6.75L371,346h2.22l-6.12,7.26,6.12,7.41h-2.36l-5.56-6.77Z"/><path class="cls-2" d="M382,350.56h1.67V360.7H382v-1.95a4.22,4.22,0,0,1-3.7,2.2c-2.79,0-4.77-2.2-4.77-5.28s2-5.35,4.82-5.35a4.24,4.24,0,0,1,3.65,1.91ZM376.15,353a4.64,4.64,0,0,0-.84,2.69c0,2.16,1.41,3.78,3.26,3.78a3.75,3.75,0,0,0,3.47-4,3.42,3.42,0,0,0-3.43-3.72A2.76,2.76,0,0,0,376.15,353Z"/><path class="cls-2" d="M391.72,353.33v-.11c0-.94-.77-1.54-1.93-1.54s-1.83.58-1.83,1.46.44,1.2,2.27,1.71a5.13,5.13,0,0,1,2.46,1.17,2.81,2.81,0,0,1,.82,2c0,1.76-1.46,2.95-3.61,2.95-2.31,0-3.61-1.08-3.79-3.13h1.65a1.87,1.87,0,0,0,2.14,1.76c1.14,0,1.89-.59,1.89-1.49s-.57-1.32-2.31-1.76c-2.2-.6-3.19-1.52-3.19-3.06,0-1.76,1.43-2.95,3.56-2.95s3.46,1.1,3.54,3Z"/><path class="cls-2" d="M400.76,353.33v-.11c0-.94-.77-1.54-1.93-1.54s-1.83.58-1.83,1.46.44,1.2,2.27,1.71a5.08,5.08,0,0,1,2.46,1.17,2.81,2.81,0,0,1,.82,2c0,1.76-1.46,2.95-3.61,2.95-2.31,0-3.61-1.08-3.79-3.13h1.65a1.87,1.87,0,0,0,2.14,1.76c1.14,0,1.89-.59,1.89-1.49s-.57-1.32-2.31-1.76c-2.2-.6-3.19-1.52-3.19-3.06,0-1.76,1.43-2.95,3.56-2.95s3.46,1.1,3.55,3Z"/><path class="cls-2" d="M406.09,356.17a3.16,3.16,0,0,0,.66,1.85,3.31,3.31,0,0,0,2.73,1.39,3.52,3.52,0,0,0,3-1.74l1.48.55a5.21,5.21,0,1,1-4.58-7.9,5,5,0,0,1,5.15,5.19c0,.13,0,.42,0,.66Zm6.69-1.23a3.21,3.21,0,0,0-.57-1.74,3.5,3.5,0,0,0-2.8-1.39,3.27,3.27,0,0,0-2.73,1.41,4,4,0,0,0-.57,1.72Z"/><path class="cls-2" d="M416.85,360.7V346h1.67V360.7Z"/><path class="cls-2" d="M582.58,326.72,581,325a6.84,6.84,0,0,1-4.44,1.58A7.18,7.18,0,0,1,569.4,319c0-4.4,3.08-7.68,7.24-7.68a7.19,7.19,0,0,1,7.17,7.54,7.63,7.63,0,0,1-1.58,4.91l1.63,1.76ZM581,322.45a6.63,6.63,0,0,0,.9-3.48c0-3.41-2.24-5.92-5.28-5.92a5.27,5.27,0,0,0-4.16,2.07,6.22,6.22,0,0,0-1.17,3.81c0,3.43,2.23,5.9,5.26,5.9a4.48,4.48,0,0,0,3.22-1.22l-1.08-1.2,1.25-1.11Z"/><path class="cls-2" d="M588.37,320.34c0,1.87.26,2.81,1,3.52a4,4,0,0,0,2.6,1,3.8,3.8,0,0,0,2.6-1.08c.79-.77,1-1.52,1-3.48V311.6h1.89v8.69c0,2.2-.35,3.46-1.3,4.51a5.37,5.37,0,0,1-4.13,1.74,5.48,5.48,0,0,1-4.27-1.85c-.91-1-1.19-2.11-1.19-4.4V311.6h1.85Z"/><path class="cls-2" d="M602.45,318.09h5.78v1.59h-5.78v5h5.78v1.59H600.6V311.6h7.63v1.59h-5.78Z"/><path class="cls-2" d="M613,326.28h-1.85V311.6h4c3.13,0,5,1.61,5,4.27a4,4,0,0,1-2.11,3.7,6.19,6.19,0,0,1-2.71.61l5.7,6.1h-2.35l-5.7-6.16Zm1.85-7.42c2.22,0,3.43-1,3.43-2.86s-1.1-2.81-3.13-2.81H613v5.67Z"/><path class="cls-2" d="M623.28,311.6h3.89c4.43,0,7.09,2.69,7.09,7.11a7.62,7.62,0,0,1-2.31,5.87,7.32,7.32,0,0,1-5.11,1.7h-3.56Zm1.85,13.09h.66c2.48,0,3.54-.26,4.6-1.1a5.85,5.85,0,0,0,2-4.86c0-3.54-1.89-5.57-5.26-5.57h-2Z"/><path class="cls-2" d="M638.9,318.09h5.79v1.59H638.9v5h5.79v1.59h-7.64V311.6h7.64v1.59H638.9Z"/><path class="cls-2" d="M649.48,326.28h-1.85V311.6h1.7l7.83,11v-11H659v14.68h-1.63l-7.9-11.22Z"/><path class="cls-2" d="M664.51,326.28h-1.85V311.6h1.85v6.76l5.7-6.76h2.22l-6.12,7.26,6.12,7.42h-2.36l-5.56-6.78Z"/><path class="cls-2" d="M676.19,318.09H682v1.59h-5.79v5H682v1.59h-7.64V311.6H682v1.59h-5.79Z"/><path class="cls-2" d="M686.77,326.28h-1.85V311.6h1.7l7.83,11v-11h1.85v14.68h-1.63l-7.9-11.22Z"/><path class="cls-2" d="M702.68,321.7h-4.56v-1.52h4.56Z"/><path class="cls-2" d="M704.26,313.41v-1.59h8.32l-4.31,5.48a4.21,4.21,0,0,1,4.35,4.42,4.7,4.7,0,0,1-4.86,4.8,4.31,4.31,0,0,1-4.47-3.52l1.59-.29a2.78,2.78,0,0,0,2.79,2.2,3.1,3.1,0,0,0,3.19-3.06,3,3,0,0,0-3.23-3,3,3,0,0,0-1.76.51l-.73-.64,4.25-5.32Z"/><path class="cls-2" d="M714.53,323v-1.37l7.57-10.21v10h1.72V323H722.1v3.3h-1.69V323Zm5.88-7.2-4.12,5.61h4.12Z"/><path class="cls-2" d="M727.12,316.42v-1.67l5-3.26v14.79h-1.74v-12Z"/><path class="cls-2" d="M577.24,351.61v1.67h-7V338.6h1.84v13Z"/><path class="cls-2" d="M580.09,348.74a3.23,3.23,0,0,0,.66,1.85,3.29,3.29,0,0,0,2.73,1.39,3.51,3.51,0,0,0,3-1.74l1.47.55a5,5,0,0,1-4.51,2.73,5.32,5.32,0,1,1,5.09-5.44,5.65,5.65,0,0,1,0,.66Zm6.69-1.23a3.13,3.13,0,0,0-.57-1.74,3.5,3.5,0,0,0-2.79-1.38,3.25,3.25,0,0,0-2.73,1.41,3.94,3.94,0,0,0-.57,1.71Z"/><path class="cls-2" d="M592.9,340.3a1.07,1.07,0,1,1-1.06-1.1A1.06,1.06,0,0,1,592.9,340.3Zm-.24,13H591V343.13h1.68Z"/><path class="cls-2" d="M597.69,343.13V345a4,4,0,0,1,3.7-2.09c2.82,0,4.78,2.16,4.78,5.24s-2,5.39-4.78,5.39a4.87,4.87,0,0,1-2.22-.53,3.62,3.62,0,0,1-1.48-1.3V358H596v-14.9Zm0,5.24c0,2.22,1.35,3.7,3.35,3.7s3.34-1.56,3.34-3.87a3.93,3.93,0,0,0-.88-2.76,3.26,3.26,0,0,0-2.4-1.05C599.08,344.39,597.69,346,597.69,348.37Z"/><path class="cls-2" d="M614.39,351.8v1.48h-7.48l5.28-8.67h-4.71v-1.48h7.46l-5.21,8.67Z"/><path class="cls-2" d="M618.7,340.3a1.07,1.07,0,1,1-1.05-1.1A1.05,1.05,0,0,1,618.7,340.3Zm-.24,13h-1.67V343.13h1.67Z"/><path class="cls-2" d="M629.31,343.13H631v10.21a4.74,4.74,0,0,1-1.34,3.72,5.22,5.22,0,0,1-3.74,1.34,5.72,5.72,0,0,1-4.49-1.84l1.14-1.15a6.34,6.34,0,0,0,1,.88,5,5,0,0,0,2.38.6,3.71,3.71,0,0,0,2.64-1,3.51,3.51,0,0,0,.77-2.42v-2.14a4.21,4.21,0,0,1-3.74,2.18c-2.69,0-4.69-2.27-4.69-5.28a5.83,5.83,0,0,1,1.61-4.16,4.45,4.45,0,0,1,3.21-1.19,4.1,4.1,0,0,1,3.61,2Zm-6.67,5c0,2.18,1.41,3.81,3.32,3.81a3.44,3.44,0,0,0,2.58-1.23,4.12,4.12,0,0,0,.72-2.51,3.53,3.53,0,0,0-.79-2.69,3.35,3.35,0,0,0-5.83,2.62Z"/></svg>