<svg id="Layer_1" data-name="Layer 1" xmlns="http://www.w3.org/2000/svg" viewBox="0 0 868.37 843.31"><defs><style>.cls-1{fill:#4be1c3;}.cls-2{fill:#0f1620;}</style></defs><rect class="cls-1" x="155.19" y="642.21" width="177.62" height="24.71"/><rect class="cls-1" x="245.12" y="670.75" width="87.68" height="24.71"/><circle class="cls-1" cx="353.53" cy="665.64" r="5.51"/><path class="cls-2" d="M174.92,662.44l-1.56-1.76a6.85,6.85,0,0,1-4.45,1.59,7.19,7.19,0,0,1-7.17-7.53c0-4.4,3.08-7.68,7.24-7.68a7.2,7.2,0,0,1,7.17,7.55,7.65,7.65,0,0,1-1.58,4.91l1.63,1.76Zm-1.58-4.27a6.57,6.57,0,0,0,.9-3.47c0-3.41-2.25-5.92-5.28-5.92a5.27,5.27,0,0,0-4.16,2.07,6.18,6.18,0,0,0-1.17,3.8c0,3.44,2.23,5.9,5.26,5.9a4.47,4.47,0,0,0,3.21-1.21L171,658.13l1.25-1.1Z"/><path class="cls-2" d="M180.71,656.06c0,1.87.26,2.82,1,3.52a4,4,0,0,0,2.6,1,3.82,3.82,0,0,0,2.6-1.08c.79-.77,1-1.51,1-3.47v-8.69h1.89V656c0,2.2-.35,3.45-1.3,4.51a5.41,5.41,0,0,1-4.14,1.74,5.47,5.47,0,0,1-4.26-1.85c-.91-1-1.19-2.12-1.19-4.4v-8.69h1.85Z"/><path class="cls-2" d="M194.79,653.82h5.78v1.58h-5.78v5h5.78V662h-7.63V647.33h7.63v1.58h-5.78Z"/><path class="cls-2" d="M205.37,662h-1.85V647.33h4c3.13,0,5,1.6,5,4.26a4,4,0,0,1-2.11,3.7,6,6,0,0,1-2.71.62l5.7,6.09h-2.35l-5.7-6.16Zm1.85-7.41c2.22,0,3.43-1,3.43-2.86s-1.1-2.82-3.13-2.82h-2.15v5.68Z"/><path class="cls-2" d="M215.62,647.33h3.89c4.43,0,7.09,2.68,7.09,7.1a7.67,7.67,0,0,1-2.31,5.88,7.37,7.37,0,0,1-5.11,1.69h-3.56Zm1.85,13.09h.66c2.48,0,3.54-.27,4.6-1.1a5.87,5.87,0,0,0,2-4.86c0-3.55-1.9-5.57-5.26-5.57h-2Z"/><path class="cls-2" d="M231.24,653.82H237v1.58h-5.79v5H237V662h-7.64V647.33H237v1.58h-5.79Z"/><path class="cls-2" d="M241.82,662H240V647.33h1.7l7.83,11v-11h1.85V662h-1.63l-7.9-11.22Z"/><path class="cls-2" d="M256.85,662H255V647.33h1.85v6.75l5.7-6.75h2.22l-6.12,7.26,6.12,7.41h-2.36l-5.56-6.78Z"/><path class="cls-2" d="M268.53,653.82h5.79v1.58h-5.79v5h5.79V662h-7.64V647.33h7.64v1.58h-5.79Z"/><path class="cls-2" d="M279.11,662h-1.85V647.33H279l7.83,11v-11h1.85V662H287l-7.9-11.22Z"/><path class="cls-2" d="M295,657.43h-4.56v-1.52H295Z"/><path class="cls-2" d="M296.86,649.17v-1.62H305L299.2,662h-1.9l5.2-12.83Z"/><path class="cls-2" d="M308.46,652.14v-1.67l5-3.25V662h-1.74V650Z"/><path class="cls-2" d="M319.46,652.14v-1.67l5-3.25V662h-1.74V650Z"/><path class="cls-2" d="M253.66,685.06a2.38,2.38,0,0,0,2.59,2.56,2.56,2.56,0,0,0,2.82-2.49c0-1.28-.66-1.87-3-2.64a7.36,7.36,0,0,1-3-1.48,3.63,3.63,0,0,1-1.14-2.77,4.37,4.37,0,0,1,8.73,0h-1.85a2.78,2.78,0,0,0-.35-1.51,2.56,2.56,0,0,0-2.18-1,2.34,2.34,0,0,0-2.48,2.4,2,2,0,0,0,.83,1.69,8.28,8.28,0,0,0,2.36,1,6.58,6.58,0,0,1,2.9,1.58,3.77,3.77,0,0,1,1,2.6c0,2.53-1.87,4.25-4.62,4.25a4.14,4.14,0,0,1-3.92-2,3.65,3.65,0,0,1-.5-1.92v-.31Z"/><path class="cls-2" d="M265.3,686.93c0,.51.15.62.77.62h.77V689h-1.57c-1.18,0-1.65-.46-1.65-1.58v-7.09h-1.41v-1.47h1.41v-3.19h1.68v3.19h1.54v1.47H265.3Z"/><path class="cls-2" d="M276.74,678.86v6.49a3.36,3.36,0,0,1-1,2.84,4.57,4.57,0,0,1-5.85,0,3.73,3.73,0,0,1-1-2.82v-6.49h1.67v6.44a2.26,2.26,0,0,0,2.27,2.45,2.42,2.42,0,0,0,1.8-.77,2.27,2.27,0,0,0,.44-1.63v-6.49Z"/><path class="cls-2" d="M281.6,686.93c0,.51.15.62.77.62h.77V689h-1.56c-1.19,0-1.66-.46-1.66-1.58v-7.09h-1.4v-1.47h1.4v-3.19h1.68v3.19h1.54v1.47H281.6Z"/><path class="cls-2" d="M287.6,686.93c0,.51.16.62.77.62h.77V689h-1.56c-1.19,0-1.65-.46-1.65-1.58v-7.09h-1.41v-1.47h1.41v-3.19h1.67v3.19h1.54v1.47H287.6Z"/><path class="cls-2" d="M298.89,678.86h1.67v10.21a4.75,4.75,0,0,1-1.34,3.72,5.22,5.22,0,0,1-3.74,1.34,5.73,5.73,0,0,1-4.49-1.85l1.14-1.14a6.93,6.93,0,0,0,1,.88,5,5,0,0,0,2.38.59,3.65,3.65,0,0,0,2.64-1,3.45,3.45,0,0,0,.77-2.42v-2.13a4.22,4.22,0,0,1-3.74,2.17c-2.69,0-4.69-2.26-4.69-5.28a5.85,5.85,0,0,1,1.61-4.16,4.45,4.45,0,0,1,3.21-1.18,4.09,4.09,0,0,1,3.61,2Zm-6.67,5c0,2.18,1.41,3.8,3.33,3.8a3.44,3.44,0,0,0,2.57-1.23,4.07,4.07,0,0,0,.73-2.51,3.51,3.51,0,0,0-.8-2.68,3.35,3.35,0,0,0-5.83,2.62Z"/><path class="cls-2" d="M311.5,678.86h1.67V689H311.5v-2a4.21,4.21,0,0,1-3.7,2.2c-2.8,0-4.78-2.2-4.78-5.28s2-5.34,4.82-5.34a4.25,4.25,0,0,1,3.66,1.91Zm-5.88,2.46a4.64,4.64,0,0,0-.84,2.69c0,2.15,1.41,3.78,3.26,3.78a3.75,3.75,0,0,0,3.48-4,3.42,3.42,0,0,0-3.43-3.72A2.77,2.77,0,0,0,305.62,681.32Z"/><path class="cls-2" d="M318.2,678.86v1.71a2.89,2.89,0,0,1,.93-1.34,3.2,3.2,0,0,1,1.94-.61h.39v1.69a4.12,4.12,0,0,0-.46,0,2.59,2.59,0,0,0-2.2,1.17,3.69,3.69,0,0,0-.6,2.39V689h-1.67V678.86Z"/><path class="cls-2" d="M325.77,686.93c0,.51.16.62.77.62h.77V689h-1.56c-1.19,0-1.65-.46-1.65-1.58v-7.09h-1.41v-1.47h1.41v-3.19h1.67v3.19h1.54v1.47h-1.54Z"/></svg>